<?xml version="1.0" encoding="utf-8"?>
<!-- Generator: Adobe Illustrator 25.3.1, SVG Export Plug-In . SVG Version: 6.00 Build 0)  -->
<svg version="1.1" id="Layer_1" xmlns="http://www.w3.org/2000/svg" xmlns:xlink="http://www.w3.org/1999/xlink" x="0px" y="0px"
	 viewBox="0 0 750 471" style="enable-background:new 0 0 750 471;" xml:space="preserve">
<style type="text/css">
	.st0{fill:#2557D6;}
</style>
<path class="st0" d="M554.6,130.6l-14.5,35h29.1L554.6,130.6z M387,152.3c2.7-1.4,4.3-4.5,4.3-8.4c0-3.8-1.7-6.5-4.4-7.8
	c-2.5-1.4-6.3-1.6-10-1.6h-26v19.5h25.6C380.7,154.1,384.1,154.1,387,152.3z M54.1,130.6l-14.4,35h28.8L54.1,130.6z M722.6,355.1
	h-40.7v-18.9h40.6c4,0,6.8-0.5,8.5-2.2c1.5-1.4,2.5-3.3,2.5-5.7c0-2.6-1-4.6-2.6-5.8c-1.5-1.3-3.8-2-7.4-2
	c-19.8-0.7-44.5,0.6-44.5-27.2c0-12.8,8.1-26.2,30.3-26.2h42v-17.5h-39c-11.8,0-20.3,2.8-26.4,7.2v-7.2H628
	c-9.2,0-20.1,2.3-25.2,7.2v-7.2H499.7v7.2c-8.2-5.9-22.1-7.2-28.4-7.2h-68v7.2c-6.5-6.3-20.9-7.2-29.7-7.2h-76.1l-17.4,18.8
	l-16.3-18.8H149.8v122.7h111.6l18-19.1l16.9,19.1l68.8,0.1v-28.9h6.8c9.1,0.1,19.9-0.2,29.4-4.3v33.1H458v-32h2.7
	c3.5,0,3.8,0.1,3.8,3.6v28.3h172.3c10.9,0,22.4-2.8,28.7-7.9v7.9h54.7c11.4,0,22.5-1.6,30.9-5.7v-22.9
	C746.1,351.3,736.1,355.1,722.6,355.1z M372.7,326.1h-26.3v29.5h-41l-26-29.1l-27,29.1h-83.6v-87.9h84.9l26,28.8l26.8-28.8h67.4
	c16.7,0,35.6,4.6,35.6,29C409.5,321.1,391.2,326.1,372.7,326.1z M499.3,322.1c3,4.3,3.4,8.3,3.5,16v17.4h-21.2v-11
	c0-5.3,0.5-13.1-3.4-17.2c-3.1-3.1-7.8-3.9-15.5-3.9h-22.5v32.1H419v-87.9h48.7c10.7,0,18.5,0.5,25.4,4.1c6.7,4,10.8,9.5,10.8,19.5
	c0,14-9.4,21.2-15,23.4C493.7,316.5,497.5,319.6,499.3,322.1z M586.5,285.9h-49.4v16h48.2v17.9h-48.2v17.5l49.4,0.1v18.2h-70.4
	v-87.9h70.4V285.9z M640.7,355.6h-41.1v-18.9h40.9c4,0,6.8-0.5,8.6-2.2c1.4-1.4,2.5-3.3,2.5-5.7c0-2.6-1.1-4.6-2.6-5.8
	c-1.6-1.3-3.8-1.9-7.5-1.9c-19.7-0.7-44.4,0.6-44.4-27.2c0-12.8,8-26.2,30.2-26.2h42.3v18.7h-38.7c-3.8,0-6.3,0.1-8.5,1.6
	c-2.3,1.4-3.2,3.5-3.2,6.3c0,3.3,2,5.6,4.6,6.5c2.2,0.8,4.6,1,8.2,1l11.4,0.3c11.4,0.3,19.3,2.2,24.1,7.1c4.1,4.2,6.3,9.6,6.3,18.6
	C673.8,346.8,662,355.6,640.7,355.6z M751.2,343.8L751.2,343.8L751.2,343.8L751.2,343.8z M477.1,287.3c-2.5-1.5-6.3-1.6-10.1-1.6
	h-26v19.7h25.6c4.1,0,7.6-0.1,10.4-1.8c2.7-1.6,4.4-4.7,4.4-8.4C481.4,291.4,479.8,288.7,477.1,287.3z M712.8,285.7
	c-3.8,0-6.4,0.1-8.5,1.6c-2.2,1.4-3.1,3.5-3.1,6.3c0,3.3,1.9,5.6,4.6,6.5c2.2,0.8,4.6,1,8.1,1l11.4,0.3c11.5,0.3,19.2,2.3,23.9,7.1
	c0.9,0.7,1.4,1.4,2,2.2v-25L712.8,285.7L712.8,285.7L712.8,285.7z M373.5,285.7H346v22.4h27.3c8.1,0,13.1-4,13.1-11.6
	C386.4,288.8,381.1,285.7,373.5,285.7z M189.9,285.7v16h46.3v17.9h-46.3v17.5h51.9l24.1-25.8l-23.1-25.6H189.9L189.9,285.7z
	 M325.3,347.2v-70.5l-32.4,34.7L325.3,347.2z M191.6,206v15.1h176.3l-0.1-32h3.4c2.4,0.1,3.1,0.3,3.1,4.2v27.8h91.2v-7.5
	c7.4,3.9,18.8,7.5,33.8,7.5h38.4l8.2-19.5h18.2l8,19.5H646v-18.5l11.2,18.5h59.2V98.6h-58.6v14.5l-8.2-14.5h-60.1v14.5l-7.5-14.5
	h-81.2c-13.6,0-25.6,1.9-35.2,7.2v-7.2h-56.1v7.2c-6.1-5.4-14.5-7.2-23.8-7.2H180.8L167,130.3l-14.1-31.7H88.4v14.5l-7.1-14.5h-55
	L0.8,156.9v46.6l37.8-87.9h31.3l35.9,83.2v-83.2h34.4l27.6,59.6l25.4-59.6h35.1v87.9h-21.6l-0.1-68.8L176,203.5h-18.5l-30.7-68.9
	v68.9H83.9l-8.1-19.6H31.9l-8.2,19.6H0.8v17.7h36l8.1-19.5h18.2l8.1,19.5h70.9v-14.9l6.3,15h36.8L191.6,206z M469.4,125.8
	c6.8-7,17.5-10.2,32-10.2h20.4v18.8h-20c-7.7,0-12,1.1-16.2,5.2c-3.6,3.7-6.1,10.7-6.1,19.9c0,9.4,1.9,16.2,5.8,20.6
	c3.2,3.5,9.2,4.5,14.7,4.5h9.5l29.7-69.1h31.6l35.7,83.1v-83.1h32.1l37.1,61.2v-61.2h21.6v87.9h-29.9l-40-66v66h-43l-8.2-19.6h-43.8
	l-8,19.6h-24.7c-10.3,0-23.2-2.3-30.6-9.7c-7.4-7.5-11.3-17.6-11.3-33.6C458,147.2,460.3,135.3,469.4,125.8z M426,115.6h21.5v87.9
	H426V115.6z M329,115.6h48.5c10.8,0,18.7,0.3,25.5,4.2c6.7,3.9,10.7,9.7,10.7,19.5c0,14-9.4,21.3-14.9,23.4
	c4.6,1.8,8.6,4.8,10.4,7.4c3,4.4,3.5,8.3,3.5,16.1v17.3h-21.3l-0.1-11.1c0-5.3,0.5-12.9-3.3-17.1c-3.1-3.1-7.8-3.8-15.4-3.8H350v32
	H329L329,115.6L329,115.6z M243.9,115.6h70.5v18.3H265v15.8h48.2v18H265v17.6h49.4v18.2h-70.5L243.9,115.6L243.9,115.6z"/>
</svg>
