<?xml version="1.0" encoding="utf-8"?>
<!-- Generator: Adobe Illustrator 25.3.1, SVG Export Plug-In . SVG Version: 6.00 Build 0)  -->
<svg version="1.1" id="Layer_1" xmlns="http://www.w3.org/2000/svg" xmlns:xlink="http://www.w3.org/1999/xlink" x="0px" y="0px"
	 viewBox="0 0 750 471" style="enable-background:new 0 0 750 471;" xml:space="preserve">
<style type="text/css">
	.st0{fill:#0079BE;}
	.st1{fill:#FFFFFF;}
</style>
<g id="diners">
	<path id="Shape-path" class="st0" d="M584.9,236.9c0-99.4-83-168.1-173.9-168.1h-78.2c-92,0-167.7,68.7-167.7,168.1
		c0,90.9,75.7,165.6,167.7,165.2H411C502,402.6,584.9,327.9,584.9,236.9L584.9,236.9z"/>
	<path id="Shape-path_1_" class="st1" d="M333.3,82.9c-84.1,0-152.2,68.3-152.2,152.6c0,84.3,68.1,152.5,152.2,152.6
		c84.1,0,152.2-68.3,152.2-152.6C485.5,151.2,417.4,83,333.3,82.9L333.3,82.9z"/>
	<path id="Path" class="st0" d="M237.1,235.1c0.1-41.2,25.7-76.3,61.9-90.2v180.5C262.8,311.4,237.1,276.3,237.1,235.1z
		 M368.1,325.4V144.8c36.2,13.9,61.9,49.1,62,90.3C430,276.3,404.3,311.4,368.1,325.4z"/>
</g>
</svg>
