<?xml version="1.0" encoding="utf-8"?>
<!-- Generator: Adobe Illustrator 25.3.1, SVG Export Plug-In . SVG Version: 6.00 Build 0)  -->
<svg version="1.1" id="Layer_1" xmlns="http://www.w3.org/2000/svg" xmlns:xlink="http://www.w3.org/1999/xlink" x="0px" y="0px"
	 viewBox="0 0 750 471" style="enable-background:new 0 0 750 471;" xml:space="preserve">
<style type="text/css">
	.st0{fill:#FFFFFF;}
	.st1{fill:url(#path3496_1_);}
	.st2{fill:url(#path3498_1_);}
	.st3{fill:url(#path3500_1_);}
</style>
<g>
	<path id="path3494" class="st0" d="M617.2,346.8c0,41.6-33.7,75.4-75.4,75.4H132.8V124.2c0-41.6,33.7-75.4,75.4-75.4h409.1
		L617.2,346.8L617.2,346.8L617.2,346.8z"/>
	
		<linearGradient id="path3496_1_" gradientUnits="userSpaceOnUse" x1="893.2228" y1="298.7134" x2="894.2228" y2="298.7134" gradientTransform="matrix(132.8743 0 0 323.0226 -118228.8594 -96255.6875)">
		<stop  offset="0" style="stop-color:#007B40"/>
		<stop  offset="1" style="stop-color:#55B330"/>
	</linearGradient>
	<path id="path3496" class="st1" d="M483.9,242c11.7,0.3,23.4-0.5,35.1,0.4c11.8,2.2,14.6,20,4.2,25.9c-7.1,3.9-15.6,1.4-23.4,2.1
		h-15.9V242L483.9,242z M525.7,209.9c2.6,9.2-6.2,17.4-15.1,16.1h-26.8c0.2-8.6-0.4-18,0.3-26.2c10.7,0.3,21.5-0.6,32.2,0.5
		C520.9,201.5,524.8,205.2,525.7,209.9L525.7,209.9z M590.1,74c0.5,17.5,0.1,35.9,0.2,53.8c0,72.6,0.1,145.2-0.1,217.8
		c-0.5,27.2-24.6,50.8-51.6,51.4c-27,0.1-54.1,0-81.1,0V287.3c29.5-0.2,59,0.3,88.4-0.2c13.7-0.9,28.6-9.9,29.3-24.9
		c1.6-15.1-12.6-25.6-26.2-27.2c-5.2-0.1-5-1.5,0-2.1c12.9-2.8,23-16.1,19.2-29.5c-3.2-14.1-18.8-19.5-31.7-19.5
		c-26.4-0.2-52.7,0-79.1-0.1c0.2-20.5-0.4-41,0.3-61.5c2.1-26.7,26.8-48.7,53.4-48.3C537.6,74,563.8,74,590.1,74L590.1,74z"/>
	
		<linearGradient id="path3498_1_" gradientUnits="userSpaceOnUse" x1="893.238" y1="298.7134" x2="894.2313" y2="298.7134" gradientTransform="matrix(133.4307 0 0 323.0203 -119025.4062 -96255.0078)">
		<stop  offset="0" style="stop-color:#1D2970"/>
		<stop  offset="1" style="stop-color:#006DBA"/>
	</linearGradient>
	<path id="path3498" class="st2" d="M159.7,125c0.7-27.2,24.9-50.6,51.9-51c26.9-0.1,53.9,0,80.8,0c-0.1,90.9,0.1,181.8-0.1,272.7
		c-1,26.8-25,49.8-51.7,50.3c-27,0.1-54,0-81,0V283.6c26.2,6.2,53.7,8.8,80.5,4.7c16-2.6,33.5-10.4,38.9-27
		c4-14.2,1.7-29.1,2.3-43.7v-33.8h-46.3c-0.2,22.4,0.4,44.8-0.3,67.1c-1.2,13.7-14.8,22.5-27.8,22c-16.1,0.2-47.9-11.6-47.9-11.6
		C159,219.3,159.5,166.8,159.7,125L159.7,125z"/>
	
		<linearGradient id="path3500_1_" gradientUnits="userSpaceOnUse" x1="893.2237" y1="298.7134" x2="894.2224" y2="298.7134" gradientTransform="matrix(132.9583 0 0 323.0276 -118453.0469 -96257.1719)">
		<stop  offset="0" style="stop-color:#6E2B2F"/>
		<stop  offset="1" style="stop-color:#E30138"/>
	</linearGradient>
	<path id="path3500" class="st3" d="M309.7,197.4c-2.4,0.5-0.5-8.3-1.1-11.6c0.2-21.1-0.3-42.3,0.3-63.5c2.1-26.8,27-48.9,53.7-48.3
		h78.8c-0.1,90.9,0.1,181.8-0.1,272.7c-1,26.8-25,49.8-51.7,50.3c-27,0.1-54,0-81,0V272.7c18.4,15.1,43.5,17.5,66.5,17.5
		c17.3,0,34.5-2.7,51.4-6.7v-22.8c-19,9.4-41.2,15.4-62.2,10c-14.7-3.6-25.3-17.8-25.1-32.9c-1.7-15.7,7.5-32.3,23-37
		c19.2-6,40.1-1.4,58.1,6.4c3.9,2,7.8,4.5,6.2-1.9v-17.9c-30.1-7.2-62.1-9.8-92.3-2C325.4,187.9,316.8,191.6,309.7,197.4
		L309.7,197.4z"/>
</g>
</svg>
