<?xml version="1.0" encoding="utf-8"?>
<!-- Generator: Adobe Illustrator 25.3.1, SVG Export Plug-In . SVG Version: 6.00 Build 0)  -->
<svg version="1.1" id="Layer_1" xmlns="http://www.w3.org/2000/svg" xmlns:xlink="http://www.w3.org/1999/xlink" x="0px" y="0px"
	 viewBox="0 0 482.6 374.3" style="enable-background:new 0 0 482.6 374.3;" xml:space="preserve">
<style type="text/css">
	.st0{fill:#7673C0;}
	.st1{fill:#EB001B;}
	.st2{fill:#00A1DF;}
</style>
<g>
	<path d="M145.9,373.3v-24.8c0-9.4-6-15.6-15.5-15.7c-5-0.1-10.3,1.5-13.9,7c-2.7-4.4-7-7-13.1-7c-4.6-0.2-9,2-11.6,5.9v-4.9h-8.6
		v39.5h8.7v-22c0-6.9,3.8-10.5,9.7-10.5c5.7,0,8.6,3.7,8.6,10.4v22h8.7v-21.9c0-6.9,4-10.5,9.7-10.5c5.9,0,8.7,3.7,8.7,10.4v22
		L145.9,373.3z M194.4,353.5v-19.8h-8.6v4.8c-2.7-3.6-6.9-5.8-12.5-5.8c-11.1,0-19.8,8.7-19.8,20.8s8.7,20.8,19.8,20.8
		c5.6,0,9.8-2.2,12.5-5.8v4.8h8.6V353.5z M162.4,353.5c0-7,4.5-12.7,12-12.7c7.1,0,11.9,5.5,11.9,12.7s-4.8,12.7-11.9,12.7
		C166.9,366.2,162.4,360.5,162.4,353.5L162.4,353.5z M378.5,332.7c2.9,0,5.8,0.5,8.5,1.6c2.5,1,4.8,2.5,6.8,4.4
		c1.9,1.9,3.4,4.1,4.5,6.6c2.1,5.3,2.1,11.2,0,16.5c-1,2.5-2.5,4.7-4.5,6.6c-1.9,1.9-4.2,3.4-6.8,4.4c-5.5,2.1-11.5,2.1-17,0
		c-2.5-1-4.8-2.5-6.7-4.4c-1.9-1.9-3.4-4.1-4.4-6.6c-2.1-5.3-2.1-11.2,0-16.5c1-2.5,2.5-4.7,4.4-6.6c1.9-1.9,4.2-3.4,6.7-4.4
		C372.7,333.2,375.6,332.7,378.5,332.7z M378.5,340.8c-1.7,0-3.4,0.3-4.9,0.9c-1.5,0.6-2.8,1.5-3.9,2.6c-1.1,1.1-2,2.5-2.6,4
		c-1.3,3.3-1.3,7,0,10.3c0.6,1.5,1.5,2.9,2.6,4c1.1,1.1,2.4,2,3.9,2.6c3.2,1.2,6.7,1.2,9.8,0c1.5-0.6,2.8-1.5,3.9-2.6
		c1.1-1.1,2-2.5,2.6-4c1.3-3.3,1.3-7,0-10.3c-0.6-1.5-1.5-2.9-2.6-4c-1.1-1.1-2.5-2-3.9-2.6C381.9,341.1,380.2,340.8,378.5,340.8
		L378.5,340.8z M241.2,353.5c-0.1-12.3-7.7-20.8-18.8-20.8c-11.6,0-19.7,8.4-19.7,20.8c0,12.6,8.4,20.8,20.3,20.8
		c6,0,11.4-1.5,16.2-5.5l-4.2-6.4c-3.3,2.6-7.3,4.1-11.5,4.1c-5.5,0-10.6-2.6-11.8-9.7H241C241.1,355.7,241.2,354.7,241.2,353.5z
		 M211.8,350c0.9-5.7,4.4-9.6,10.5-9.6c5.5,0,9.1,3.5,10,9.6H211.8z M277.4,343.8c-3.8-2.2-8-3.3-12.3-3.4c-4.7,0-7.5,1.7-7.5,4.6
		c0,2.6,3,3.4,6.7,3.9l4,0.6c8.6,1.2,13.8,4.9,13.8,11.8c0,7.5-6.6,12.9-18,12.9c-6.5,0-12.4-1.7-17.1-5.1l4-6.7
		c3.8,2.8,8.4,4.3,13.2,4.1c5.9,0,9-1.7,9-4.8c0-2.2-2.2-3.5-7-4.1l-4-0.6c-8.9-1.2-13.6-5.2-13.6-11.7c0-7.9,6.5-12.7,16.5-12.7
		c6.3,0,12,1.4,16.1,4.1L277.4,343.8z M318.8,341.6h-14.1v17.9c0,4,1.4,6.6,5.7,6.6c2.7-0.1,5.3-0.9,7.6-2.2l2.5,7.4
		c-3.2,2-7,3.1-10.8,3.1c-10.2,0-13.7-5.5-13.7-14.6v-18h-8v-7.9h8v-12h8.7v12h14.1L318.8,341.6z M348.6,332.7
		c2.1,0,4.2,0.4,6.1,1.1l-2.6,8.1c-1.7-0.7-3.5-1-5.4-1c-5.6,0-8.4,3.6-8.4,10.2v22.2h-8.6v-39.6h8.5v4.8
		C340.2,334.8,344.2,332.6,348.6,332.7L348.6,332.7z"/>
	<g>
		<rect x="176.1" y="31.9" class="st0" width="130.5" height="234.5"/>
		<path class="st1" d="M184.3,149.1c0-45.8,21-89,57-117.3C176.6-19,82.8-7.8,31.9,57S-7.7,215.5,57,266.4
			c54.1,42.5,130.2,42.5,184.3,0C205.3,238.1,184.3,194.9,184.3,149.1z"/>
		<path class="st2" d="M482.6,149.1c0,82.4-66.8,149.1-149.1,149.1c-33.4,0-65.9-11.2-92.2-31.9c64.8-50.9,76-144.7,25.1-209.5
			c-7.3-9.3-15.7-17.7-25.1-25.1C306.1-19,399.8-7.8,450.7,57C471.4,83.3,482.6,115.7,482.6,149.1z"/>
	</g>
</g>
</svg>
