<?xml version="1.0" encoding="utf-8"?>
<!-- Generator: Adobe Illustrator 25.3.1, SVG Export Plug-In . SVG Version: 6.00 Build 0)  -->
<svg xmlns="http://www.w3.org/2000/svg" xmlns:xlink="http://www.w3.org/1999/xlink" x="0px"
	 y="0px" viewBox="0 0 750 471" style="enable-background:new 0 0 750 471;" xml:space="preserve">
<style type="text/css">
	.st0{fill:#FFFFFF;}
	.st1{fill:#FF5F00;}
	.st2{fill:#EB001B;}
	.st3{fill:#F79E1B;}
</style>
<g>
	<g id="mastercard">
		<path d="M40,0h670c22.1,0,40,17.9,40,40v391c0,22.1-17.9,40-40,40H40c-22.1,0-40-17.9-40-40V40C0,17.9,17.9,0,40,0z"/>
		<g transform="translate(133.000000, 48.000000)">
			<path id="Shape" class="st0" d="M88.1,373.7v-24.9c0-9.5-5.8-15.7-15.3-15.7c-5,0-10.3,1.7-14.1,7c-2.9-4.6-7-7-13.2-7
				c-4.7-0.2-9.2,2-12,5.8v-5h-7.9v39.8h7.9v-22.8c0-7,4.1-10.4,9.9-10.4s9.1,3.7,9.1,10.4v22.8h7.9v-22.8c0-7,4.1-10.4,9.9-10.4
				c5.8,0,9.1,3.7,9.1,10.4v22.8H88.1z M217.4,334.3h-14.5v-12H195v12h-8.3v7h8.3V360c0,9.1,3.3,14.5,13.2,14.5
				c3.8-0.1,7.5-1.1,10.8-2.9l-2.5-7c-2.2,1.4-4.8,2.1-7.5,2.1c-4.1,0-6.2-2.5-6.2-6.6v-19h14.5L217.4,334.3L217.4,334.3z
				 M291.1,333.1c-4.4-0.1-8.5,2.1-10.8,5.8v-5h-7.9v39.8h7.9v-22.3c0-6.6,3.3-10.8,8.7-10.8c1.8,0.1,3.6,0.4,5.4,0.8l2.5-7.5
				C295,333.4,293,333.2,291.1,333.1z M179.7,337.2c-4.1-2.9-9.9-4.1-16.2-4.1c-9.9,0-16.1,4.6-16.1,12.4c0,6.6,4.6,10.3,13.2,11.6
				l4.1,0.4c4.6,0.8,7.5,2.5,7.5,4.6c0,2.9-3.3,5-9.5,5c-4.7,0.1-9.4-1.4-13.2-4.1l-4.1,6.2c5.8,4.1,12.8,5,17,5
				c11.6,0,17.8-5.4,17.8-12.8c0-7-5-10.4-13.7-11.6l-4.1-0.4c-3.7-0.4-7-1.7-7-4.1c0-2.9,3.3-5,7.9-5c5,0,9.9,2.1,12.4,3.3
				L179.7,337.2z M299.8,353.8c0,12,7.9,20.7,20.7,20.7c5.8,0,9.9-1.2,14.1-4.6l-4.1-6.2c-2.9,2.4-6.6,3.7-10.4,3.7
				c-7,0-12.4-5.4-12.4-13.2S313,341,320.1,341c3.8,0,7.4,1.4,10.4,3.7l4.1-6.2c-4.1-3.3-8.3-4.6-14.1-4.6
				C308,333.1,299.8,341.8,299.8,353.8L299.8,353.8z M244.3,333.1c-11.6,0-19.5,8.3-19.5,20.7c0,12.4,8.3,20.7,20.3,20.7
				c5.8,0.1,11.5-1.8,16.1-5.4l-4.1-5.8c-3.3,2.6-7.4,4-11.6,4.1c-5.4,0-11.2-3.3-12-10.4h29.4v-3.3
				C262.9,341.4,255.4,333.1,244.3,333.1L244.3,333.1z M243.9,340.5c5.8,0,9.9,3.7,10.4,9.9h-21.5
				C233.9,344.7,237.7,340.5,243.9,340.5z M136.6,353.8v-19.9h-7.9v5c-2.9-3.7-7-5.8-12.8-5.8c-11.2,0-19.5,8.7-19.5,20.7
				c0,12,8.3,20.7,19.5,20.7c5.8,0,9.9-2.1,12.8-5.8v5h7.9V353.8z M104.7,353.8c0-7.5,4.6-13.2,12.4-13.2c7.5,0,12,5.8,12,13.2
				c0,7.9-5,13.2-12,13.2C109.3,367.5,104.7,361.2,104.7,353.8z M410.8,333.1c-4.4-0.1-8.5,2.1-10.8,5.8v-5h-7.9v39.8h7.9v-22.3
				c0-6.6,3.3-10.8,8.7-10.8c1.8,0.1,3.6,0.4,5.4,0.8l2.5-7.5C414.7,333.4,412.7,333.2,410.8,333.1L410.8,333.1z M380.1,353.8v-19.9
				h-7.9v5c-2.9-3.7-7-5.8-12.8-5.8c-11.2,0-19.5,8.7-19.5,20.7c0,12,8.3,20.7,19.5,20.7c5.8,0,9.9-2.1,12.8-5.8v5h7.9V353.8z
				 M348.2,353.8c0-7.5,4.6-13.2,12.4-13.2c7.5,0,12,5.8,12,13.2c0,7.9-5,13.2-12,13.2C352.8,367.5,348.2,361.2,348.2,353.8z
				 M460.1,353.8v-35.6h-7.9v20.7c-2.9-3.7-7-5.8-12.8-5.8c-11.2,0-19.5,8.7-19.5,20.7c0,12,8.3,20.7,19.5,20.7
				c5.8,0,9.9-2.1,12.8-5.8v5h7.9V353.8z M428.2,353.8c0-7.5,4.6-13.2,12.4-13.2c7.5,0,12,5.8,12,13.2c0,7.9-5,13.2-12,13.2
				C432.7,367.5,428.2,361.2,428.2,353.8L428.2,353.8z"/>
			<rect id="Rectangle-path" x="170.6" y="32.4" class="st1" width="143.7" height="234.4"/>
			<path id="Shape_1_" class="st2" d="M185.1,149.6c0-45.7,20.9-88.9,56.7-117.2C180.7-15.7,92.9-8.7,40.1,48.4s-52.8,145.2,0,202.3
				s140.6,64.1,201.7,16C206,238.5,185.1,195.3,185.1,149.6z"/>
			<path id="Shape_2_" class="st3" d="M483.3,149.6c0,57-32.5,109.1-83.8,134.1s-112.3,18.4-157.2-16.8
				c35.8-28.3,56.7-71.5,56.7-117.2s-20.9-88.9-56.7-117.2C287.1-2.9,348.2-9.4,399.5,15.5S483.3,92.6,483.3,149.6z"/>
		</g>
	</g>
</g>
</svg>
