<?xml version="1.0" encoding="utf-8"?>
<!-- Generator: Adobe Illustrator 25.3.1, SVG Export Plug-In . SVG Version: 6.00 Build 0)  -->
<svg version="1.1" id="Layer_1" xmlns="http://www.w3.org/2000/svg" xmlns:xlink="http://www.w3.org/1999/xlink" x="0px" y="0px"
	 viewBox="0 0 750 471" style="enable-background:new 0 0 750 471;" xml:space="preserve">
<style type="text/css">
	.st0{fill:none;}
	.st1{fill-rule:evenodd;clip-rule:evenodd;fill:#D10429;}
	.st2{fill-rule:evenodd;clip-rule:evenodd;fill:#022E64;}
	.st3{fill-rule:evenodd;clip-rule:evenodd;fill:#076F74;}
	.st4{fill-rule:evenodd;clip-rule:evenodd;fill:#FEFEFE;}
</style>
<g>
	<path class="st0" d="M40,0h670c22.1,0,40,17.9,40,40v391c0,22.1-17.9,40-40,40H40c-22.1,0-40-17.9-40-40V40C0,17.9,17.9,0,40,0z"/>
	<path class="st1" d="M201.8,55h142.4c19.9,0,32.3,16.4,27.6,36.5l-66.3,287.5c-4.7,20.1-24.6,36.5-44.5,36.5H118.6
		c-19.9,0-32.3-16.4-27.6-36.5l66.3-287.5C162,71.3,181.8,55,201.7,55H201.8z"/>
	<path class="st2" d="M331.8,55h163.8c19.9,0,10.9,16.4,6.2,36.5l-66.3,287.5c-4.7,20.1-3.2,36.5-23.1,36.5H248.5
		c-20,0-32.3-16.4-27.5-36.5l66.3-287.5C292,71.3,311.9,55,331.9,55H331.8z"/>
	<path class="st3" d="M489.8,55h142.4c19.9,0,32.3,16.4,27.6,36.5l-66.3,287.5c-4.7,20.1-24.6,36.5-44.5,36.5H406.6
		c-20,0-32.3-16.4-27.6-36.5l66.3-287.5C450,71.3,469.8,55,489.7,55H489.8z"/>
	<path class="st4" d="M465.9,326h13.5l3.8-13.1h-13.3L465.9,326L465.9,326z M476.7,290.1L476.7,290.1l-4.7,15.5c0,0,5.1-2.6,7.9-3.4
		c2.8-0.6,6.9-1.1,6.9-1.1l3.2-10.8h-13.5L476.7,290.1z M483.4,267.9L483.4,267.9l-4.4,14.8c0,0,5-2.3,7.8-3
		c2.8-0.7,6.9-0.9,6.9-0.9l3.2-10.8h-13.3L483.4,267.9z M513.1,267.9L513.1,267.9l-17.4,58h4.7l-3.6,12h-4.7l-1.1,3.7h-16.6l1.1-3.7
		H442l3.3-11.1h3.4l17.6-58.9l3.5-11.9h16.9l-1.8,6c0,0,4.4-3.2,8.8-4.4c4.2-1.1,28.7-1.6,28.7-1.6l-3.6,11.8H513L513.1,267.9z"/>
	<path class="st4" d="M520,256h18l0.2,6.8c-0.1,1.1,0.8,1.7,3,1.7h3.6l-3.3,11.2h-9.7c-8.4,0.6-11.6-3-11.4-7.1l-0.3-12.4L520,256z
		 M522.2,309.2H505l2.9-9.9h19.7l2.8-9.1H511l3.3-11.2h53.8l-3.3,11.2h-18.1l-2.8,9.1h18.1l-3,9.9h-19.6l-3.5,4.2h8l2,12.5
		c0.2,1.3,0.2,2.1,0.6,2.6c0.4,0.4,2.8,0.6,4.1,0.6h2.4l-3.7,12.2h-6.1c-0.9,0-2.4-0.1-4.3-0.1c-1.9-0.2-3.1-1.3-4.3-1.9
		c-1.1-0.5-2.8-1.9-3.2-4.3l-1.9-12.5l-8.9,12.3c-2.8,3.9-6.6,6.9-13.1,6.9H495l3.3-10.9h4.8c1.3,0,2.6-0.5,3.5-1
		c0.9-0.4,1.8-0.8,2.6-2.2L522.2,309.2L522.2,309.2z M334.3,282h45.4l-3.3,11h-18.1l-2.8,9.3h18.6l-3.4,11.3h-18.5l-4.6,15.2
		c-0.5,1.7,4.4,1.9,6.2,1.9l9.3-1.3l-3.7,12.5h-20.9c-1.7,0-2.9-0.2-4.8-0.6c-1.8-0.4-2.6-1.3-3.3-2.4c-0.7-1.3-2-2.2-1.1-4.9
		l6-20.1H325l3.4-11.5h10.3l2.8-9.3h-10.3l3.3-11L334.3,282z M365.7,262.2h18.6l-3.4,11.4h-25.5l-2.8,2.4c-1.2,1.1-1.6,0.7-3.1,1.6
		c-1.4,0.7-4.4,2.2-8.4,2.2H333l3.3-11h2.5c2.1,0,3.5-0.2,4.2-0.6c0.8-0.5,1.8-1.7,2.7-3.6l4.7-8.6h18.5l-3.2,6.3V262.2z M400.8,281
		c0,0,5.1-4.7,13.8-6.2c2-0.4,14.4-0.2,14.4-0.2l1.9-6.3h-26.2l-3.8,12.7V281z M425.4,285.8L425.4,285.8h-26l-1.6,5.3h22.6
		c2.7-0.3,3.2,0.1,3.4-0.1l1.7-5.2H425.4z M391.7,256.1L391.7,256.1h15.8l-2.3,8c0,0,5-4.1,8.5-5.5c3.5-1.3,11.4-2.5,11.4-2.5
		l25.7-0.1l-8.8,29.5c-1.4,5-3.2,8.3-4.2,9.8c-0.9,1.5-2.1,2.8-4.3,4.1c-2.2,1.1-4.1,1.9-6,2c-1.7,0.1-4.3,0.2-7.9,0.2h-24.7
		l-6.9,23.3c-0.6,2.3-0.9,3.4-0.5,4.1c0.3,0.5,1.2,1.1,2.4,1.1l10.9-1l-3.7,12.7h-12.2c-3.9,0-6.7-0.1-8.7-0.2c-1.9-0.2-3.8,0-5.2-1
		c-1.1-1-2.9-2.4-2.8-3.8c0.1-1.3,0.6-3.3,1.4-6.3L391.7,256.1L391.7,256.1z"/>
	<path class="st4" d="M437.8,303l-1.4,7.1c-0.6,2.2-1.1,3.9-2.8,5.3c-1.8,1.5-3.7,3-8.5,3l-8.8,0.4l-0.1,7.9c-0.1,2.2,0.5,2,0.8,2.4
		c0.4,0.4,0.7,0.5,1.1,0.7l2.8-0.2l8.4-0.4l-3.5,11.7h-9.6c-6.7,0-11.8-0.2-13.3-1.5c-1.7-1-1.9-2.3-1.9-4.6l0.6-31.1H417l-0.2,6.4
		h3.7c1.2,0,2.2-0.1,2.7-0.4c0.5-0.3,0.8-0.8,1-1.6l1.6-5h12.1L437.8,303z M218.5,147c-0.5,2.5-10.5,48.6-10.5,48.6
		c-2.2,9.3-3.7,16-8.9,20.3c-3,2.5-6.5,3.7-10.6,3.7c-6.5,0-10.2-3.2-10.9-9.4l-0.1-2.1c0,0,2-12.4,2-12.5c0,0,10.3-42,12.2-47.5
		c0.1-0.3,0.1-0.5,0.1-0.6c-20.2,0.2-23.8,0-24-0.3c-0.1,0.4-0.6,3-0.6,3l-10.6,47.3l-0.9,4l-1.8,13.2c0,3.9,0.7,7.1,2.3,9.7
		c4.9,8.6,18.6,9.8,26.4,9.8c10,0,19.5-2.2,25.8-6.1c11.1-6.6,14-16.9,16.5-26l1.2-4.7c0,0,10.7-43.6,12.5-49.2
		c0.1-0.3,0.1-0.5,0.2-0.6c-14.7,0.1-18.9,0-20.4-0.3V147z M277.5,233.6c-7.1-0.1-9.7-0.1-18.1,0.3l-0.3-0.6
		c0.7-3.2,1.6-6.4,2.2-9.6l1-4.4c1.6-6.8,3-14.8,3.2-17.2c0.2-1.5,0.6-5.1-3.5-5.1c-1.8,0-3.5,0.8-5.4,1.7c-1,3.7-3,13.9-4,18.5
		c-2.1,9.8-2.2,11-3.1,15.8l-0.6,0.6c-7.3-0.1-9.9-0.1-18.4,0.3l-0.4-0.7c1.4-5.9,2.8-11.7,4.1-17.6c3.5-15.8,4.4-21.8,5.4-29.9
		l0.7-0.4c8.3-1.1,10.2-1.5,19.2-3.2l0.7,0.8l-1.3,5c1.6-0.9,3-1.9,4.6-2.6c4.2-2.1,8.9-2.7,11.5-2.7c3.9,0,8.3,1.1,10,5.7
		c1.7,4.1,0.6,9.1-1.7,19l-1.1,5c-2.3,11.1-2.7,13.1-3.9,20.6l-0.8,0.6L277.5,233.6z M306.6,233.7c-4.3,0-7.1-0.1-9.8,0
		c-2.7,0-5.3,0.2-9.3,0.3l-0.2-0.3l-0.2-0.4c1.1-4.2,1.7-5.6,2.3-7.1c0.5-1.5,1-2.9,2.1-7.2c1.2-5.5,2.1-9.4,2.6-12.9
		c0.6-3.2,0.9-6.1,1.3-9.3l0.3-0.2l0.3-0.3c4.3-0.6,7-1,9.8-1.5s5.7-0.9,10.1-1.8l0.2,0.4l0.1,0.4c-0.8,3.4-1.7,6.9-2.5,10.3
		c-0.8,3.4-1.7,6.9-2.4,10.3c-1.6,7.3-2.3,10-2.6,12c-0.4,1.9-0.5,2.8-1.1,6.6l-0.4,0.3l-0.4,0.3L306.6,233.7z M352.5,208
		c-0.3,1.9-2,8.9-4.1,11.8c-1.6,2.2-3.3,3.6-5.4,3.6c-0.6,0-4.1,0-4.2-5.3c0-2.6,0.5-5.3,1.1-8.3c1.9-8.5,4.1-15.5,9.8-15.5
		C354.2,194.3,354.5,199.5,352.5,208L352.5,208z M371.2,208.8L371.2,208.8c2.5-11.1,0.5-16.3-1.9-19.4c-3.7-4.8-10.3-6.4-17.2-6.4
		c-4.1,0-13.9,0.4-21.5,7.5c-5.5,5.1-8.1,12.1-9.5,18.8c-1.6,6.8-3.3,19,7.9,23.6c3.4,1.5,8.4,1.9,11.6,1.9c8.2,0,16.6-2.3,22.9-9
		c4.9-5.4,7-13.6,7.9-17H371.2z M545.7,234.9c-8.7-0.1-11.2-0.1-19.1,0.3l-0.5-0.6c2.2-8.3,4.3-16.6,6.3-25
		c2.5-10.9,3.1-15.5,3.9-21.8l0.6-0.5c8.6-1.3,11-1.6,20-3.2l0.2,0.7c-1.7,6.9-3.2,13.7-4.9,20.5c-3.3,14.3-4.4,21.6-5.7,29.2
		l-0.8,0.6V234.9z"/>
	<path class="st4" d="M533.2,209.4c-0.4,1.8-2.1,8.9-4.2,11.8c-1.4,2.1-5,3.4-6.9,3.4c-0.6,0-4,0-4.2-5.2c0-2.6,0.5-5.3,1.1-8.3
		c1.9-8.3,4.1-15.3,9.8-15.3c4.4,0,6.4,5.1,4.4,13.6V209.4z M550.2,210.2L550.2,210.2c2.5-11.1-7.7-0.9-9.2-4.6
		c-2.5-5.7-0.9-17.2-10.9-21.1c-3.8-1.6-12.8,0.4-20.5,7.5c-5.4,5-8.1,12-9.5,18.7c-1.6,6.7-3.3,19,7.8,23.3c3.5,1.6,6.7,2,9.9,1.8
		c11.2-0.6,19.7-17.7,26-24.3C548.7,206.1,549.5,213.4,550.2,210.2L550.2,210.2z M420.3,233.6c-7.1-0.1-9.6-0.1-18,0.3l-0.3-0.6
		c0.7-3.2,1.6-6.4,2.3-9.6l0.9-4.4c1.6-6.8,3.1-14.8,3.2-17.2c0.2-1.5,0.6-5.1-3.4-5.1c-1.8,0-3.6,0.8-5.4,1.7
		c-0.9,3.7-3,13.9-4,18.5c-2,9.8-2.2,11-3.1,15.8l-0.6,0.6c-7.3-0.1-9.9-0.1-18.4,0.3l-0.4-0.7c1.4-5.9,2.8-11.7,4.1-17.6
		c3.5-15.8,4.3-21.8,5.4-29.9l0.6-0.4c8.3-1.1,10.3-1.5,19.2-3.2l0.7,0.8l-1.2,5c1.4-0.9,3-1.9,4.4-2.6c4.2-2.1,8.9-2.7,11.5-2.7
		c3.9,0,8.2,1.1,10,5.7c1.7,4.1,0.5,9.1-1.8,19l-1.1,5c-2.4,11.1-2.7,13.1-3.9,20.6l-0.8,0.6L420.3,233.6z M482.3,147.1l-6,0.1
		c-15.5,0.2-21.7,0.1-24.2-0.2c-0.2,1.1-0.6,3.1-0.6,3.1s-5.6,25.9-5.6,26c0,0-13.2,55.2-13.9,57.8c13.6-0.2,19-0.2,21.4,0.1
		c0.5-2.6,3.6-18,3.7-18c0,0,2.7-11.3,2.8-11.7c0,0,0.8-1.1,1.7-1.7h1.2c11.7,0,24.8,0,35.2-7.6c7-5.2,11.8-13.1,14-22.5
		c0.5-2.3,0.9-5,0.9-7.8c0-3.7-0.7-7.2-2.8-10C504.9,147.3,494.4,147.2,482.3,147.1L482.3,147.1z M490.1,174.2L490.1,174.2
		c-1.2,5.7-5,10.7-9.7,13c-3.9,2-8.7,2.2-13.7,2.2h-3.2l0.2-1.3c0,0,5.9-25.9,5.9-25.8l0.2-1.4l0.1-1l2.4,0.2c0,0,12.2,1,12.4,1
		C489.4,163,491.5,167.8,490.1,174.2L490.1,174.2z M617.3,182.8l-0.7-0.8c-8.8,1.8-10.5,2.1-18.5,3.2l-0.6,0.6
		c0,0.1-0.1,0.2-0.1,0.4v-0.1c-6,14.1-5.9,11.1-10.8,22.2c0-0.5,0-0.8-0.1-1.4l-1.2-24l-0.7-0.8c-9.3,1.8-9.5,2.1-18,3.2l-0.6,0.6
		c-0.1,0.3-0.1,0.6-0.1,0.9l0.1,0.1c1,5.5,0.8,4.3,1.9,13c0.5,4.3,1.1,8.6,1.7,12.7c0.8,7.1,1.3,10.6,2.4,21.3
		c-5.8,9.6-7.1,13.3-12.7,21.7l0.3,0.8c8.4-0.3,10.2-0.3,16.5-0.3l1.3-1.6c4.7-10.1,40.3-71.8,40.3-71.8L617.3,182.8z M314.5,189.8
		c4.8-3.3,5.4-7.9,1.3-10.3c-4-2.4-11.2-1.7-15.9,1.7c-4.8,3.2-5.3,7.8-1.2,10.3C302.6,193.7,309.8,193.1,314.5,189.8L314.5,189.8z"
		/>
	<path class="st4" d="M575.7,256.1l-6.9,12c-2.2,4.1-6.3,7.2-12.7,7.2l-11.1-0.2l3.2-10.9h2.2c1.1,0,2-0.1,2.6-0.4
		c0.6-0.2,0.9-0.6,1.4-1.3l4.1-6.6h17.3L575.7,256.1z"/>
</g>
</svg>
