<?xml version="1.0" encoding="utf-8"?>
<!-- Generator: Adobe Illustrator 25.3.1, SVG Export Plug-In . SVG Version: 6.00 Build 0)  -->
<svg xmlns="http://www.w3.org/2000/svg" xmlns:xlink="http://www.w3.org/1999/xlink" x="0px"
	 y="0px" viewBox="0 0 750 471" style="enable-background:new 0 0 750 471;" xml:space="preserve">
<style type="text/css">
	.st0{fill:#2557D6;}
	.st1{fill:#FFFFFF;}
</style>
<g>
	<g id="amex">
		<path class="st0" d="M40,0h670c22.1,0,40,17.9,40,40v391c0,22.1-17.9,40-40,40H40c-22.1,0-40-17.9-40-40V40C0,17.9,17.9,0,40,0z"
			/>
		<path id="Path" class="st1" d="M0,221.2h36l8.1-19.5h18.2l8.1,19.5h70.9v-14.9l6.3,15h36.8l6.3-15.2v15.1h176.2l-0.1-32h3.4
			c2.4,0.1,3.1,0.3,3.1,4.2v27.8h91.1v-7.5c7.3,3.9,18.8,7.5,33.8,7.5h38.3l8.2-19.5H563l8,19.5h73.9v-18.5l11.2,18.5h59.2V98.7
			h-58.6v14.5l-8.2-14.5h-60.1v14.5l-7.5-14.5h-81.2c-13.6,0-25.5,1.9-35.2,7.2v-7.2h-56v7.2c-6.1-5.4-14.5-7.2-23.8-7.2H179.9
			l-13.7,31.6l-14.1-31.6H87.6v14.5l-7.1-14.5h-55L0,156.9L0,221.2L0,221.2L0,221.2z M227.4,203.5h-21.6l-0.1-68.8l-30.6,68.8h-18.5
			L126,134.7v68.9H83.1L75,183.9H31.1l-8.2,19.6H0l37.8-87.8h31.3l35.9,83.2v-83.2h34.4l27.6,59.6l25.3-59.6h35.1L227.4,203.5
			L227.4,203.5z M67.8,165.7l-14.4-35l-14.3,35H67.8z M313.4,203.5H243v-87.8h70.4V134h-49.3v15.8h48.2v18h-48.2v17.5h49.3V203.5z
			 M412.7,139.3c0,14-9.4,21.2-14.9,23.4c4.6,1.7,8.6,4.8,10.4,7.4c3,4.4,3.5,8.3,3.5,16.1v17.3h-21.3l-0.1-11.1
			c0-5.3,0.5-12.9-3.3-17.1c-3.1-3.1-7.8-3.8-15.4-3.8h-22.6v31.9H328v-87.8h48.5c10.8,0,18.7,0.3,25.5,4.2
			C408.7,123.8,412.7,129.5,412.7,139.3L412.7,139.3z M386,152.4c-2.9,1.8-6.3,1.8-10.4,1.8H350v-19.5h26c3.7,0,7.5,0.2,10,1.6
			c2.7,1.3,4.4,4,4.4,7.8C390.4,147.9,388.8,151,386,152.4z M446.5,203.5H425v-87.8h21.5V203.5z M696.2,203.5h-29.9l-40-65.9v65.9
			h-42.9l-8.2-19.6h-43.8l-8,19.6h-24.7c-10.2,0-23.2-2.3-30.6-9.7c-7.4-7.5-11.3-17.6-11.3-33.5c0-13,2.3-24.9,11.4-34.3
			c6.8-7,17.5-10.2,32-10.2h20.4v18.8h-20c-7.7,0-12,1.1-16.2,5.2c-3.6,3.7-6.1,10.7-6.1,19.9c0,9.4,1.9,16.2,5.8,20.6
			c3.2,3.5,9.1,4.5,14.7,4.5h9.5l29.7-69.1h31.6l35.7,83.1v-83.1h32.1l37.1,61.2v-61.2h21.6V203.5z M568.1,165.7l-14.6-35l-14.5,35
			H568.1z"/>
		<path id="path13" class="st1" d="M750,343.8c-5.1,7.5-15.1,11.2-28.6,11.2h-40.7v-18.8h40.6c4,0,6.8-0.5,8.5-2.2
			c1.5-1.4,2.5-3.3,2.5-5.7c0-2.6-1-4.6-2.6-5.8c-1.5-1.3-3.8-1.9-7.4-1.9c-19.8-0.7-44.5,0.6-44.5-27.2c0-12.7,8.1-26.2,30.3-26.2
			h42l0-17.5h-39c-11.8,0-20.3,2.8-26.4,7.2v-7.2h-57.7c-9.2,0-20.1,2.3-25.2,7.2v-7.2H498.6v7.2c-8.2-5.9-22-7.2-28.4-7.2h-68v7.2
			c-6.5-6.3-20.9-7.2-29.7-7.2h-76.1L279,268.4l-16.3-18.8H149v122.6h111.5l17.9-19.1l16.9,19.1l68.7,0.1v-28.8h6.8
			c9.1,0.1,19.9-0.2,29.4-4.3v33.1h56.7v-32h2.7c3.5,0,3.8,0.1,3.8,3.6v28.3h172.2c10.9,0,22.4-2.8,28.7-7.8v7.8H719
			c11.4,0,22.5-1.6,30.9-5.7V343.8L750,343.8z M408.5,296.6c0,24.4-18.3,29.4-36.7,29.4h-26.3v29.5h-41l-26-29.1l-27,29.1H168v-87.9
			h84.8l25.9,28.8l26.8-28.8h67.4C389.7,267.7,408.5,272.3,408.5,296.6z M240.8,337H189v-17.5h46.3v-17.9H189v-16h52.9l23.1,25.6
			L240.8,337z M324.4,347.1L292,311.3l32.4-34.7V347.1z M372.2,308H345v-22.4h27.5c7.6,0,12.9,3.1,12.9,10.8
			C385.4,304,380.3,308,372.2,308z M515,267.7h70.4v18.2H536v16h48.2v17.9H536v17.5l49.4,0.1v18.2H515V267.7z M487.9,314.7
			c4.7,1.7,8.5,4.8,10.3,7.4c3,4.3,3.4,8.3,3.5,16v17.4h-21.2v-11c0-5.3,0.5-13.1-3.4-17.2c-3.1-3.1-7.8-3.9-15.5-3.9h-22.5v32.1
			H418v-87.9h48.7c10.7,0,18.4,0.5,25.4,4.1c6.7,4,10.8,9.5,10.8,19.5C502.9,305.3,493.5,312.5,487.9,314.7z M476,303.6
			c-2.8,1.7-6.3,1.8-10.4,1.8H440v-19.7h26c3.8,0,7.5,0.1,10.1,1.6c2.7,1.4,4.4,4.1,4.4,7.9S478.7,301.9,476,303.6z M666.3,309.2
			c4.1,4.2,6.3,9.6,6.3,18.6c0,18.9-11.9,27.7-33.1,27.7h-41.1v-18.8h40.9c4,0,6.8-0.5,8.6-2.2c1.5-1.4,2.5-3.3,2.5-5.7
			c0-2.6-1.1-4.6-2.6-5.8c-1.6-1.3-3.8-1.9-7.5-1.9c-19.7-0.7-44.4,0.6-44.4-27.2c0-12.7,8-26.2,30.1-26.2h42.3v18.7h-38.7
			c-3.8,0-6.3,0.1-8.4,1.6c-2.3,1.4-3.2,3.5-3.2,6.3c0,3.3,2,5.6,4.6,6.5c2.2,0.8,4.6,1,8.2,1l11.3,0.3
			C653.7,302.4,661.6,304.4,666.3,309.2z M750,285.7h-38.4c-3.8,0-6.4,0.1-8.5,1.6c-2.2,1.4-3.1,3.5-3.1,6.3c0,3.3,1.9,5.6,4.6,6.5
			c2.2,0.8,4.6,1,8.1,1l11.4,0.3c11.5,0.3,19.2,2.3,23.9,7.1c0.9,0.7,1.4,1.4,2,2.2V285.7z"/>
	</g>
</g>
</svg>
