<?xml version="1.0" encoding="utf-8"?>
<!-- Generator: Adobe Illustrator 25.3.1, SVG Export Plug-In . SVG Version: 6.00 Build 0)  -->
<svg version="1.1" id="Layer_1" xmlns="http://www.w3.org/2000/svg" xmlns:xlink="http://www.w3.org/1999/xlink" x="0px" y="0px"
	 viewBox="0 0 780 501" style="enable-background:new 0 0 780 501;" xml:space="preserve">
<style type="text/css">
	.st0{fill:#F47216;}
</style>
<g id="discover">
	<path class="st0" d="M409.4,197.8c30.9,0,56,23.6,56,52.7v0c0,29.1-25.1,52.7-56,52.7c-30.9,0-56-23.6-56-52.7v0
		C353.4,221.3,378.5,197.8,409.4,197.8L409.4,197.8z"/>
	<path d="M321.4,198.4c8.8,0,16.2,1.8,25.3,6.1v22.8c-8.5-7.9-16-11.2-25.8-11.2c-19.3,0-34.4,15-34.4,34.1
		c0,20.1,14.7,34.2,35.4,34.2c9.3,0,16.6-3.1,24.8-10.9v22.8c-9.3,4.1-16.9,5.8-25.8,5.8c-31.3,0-55.6-22.6-55.6-51.7
		C265.4,221.5,290.3,198.4,321.4,198.4L321.4,198.4z"/>
	<path d="M224.3,199.1c11.5,0,22.1,3.7,30.9,11l-10.7,13.2c-5.4-5.6-10.4-8-16.6-8c-8.9,0-15.3,4.7-15.3,11c0,5.4,3.6,8.2,15.9,12.5
		c23.4,8,30.3,15.2,30.3,30.9c0,19.2-15,32.6-36.3,32.6c-15.6,0-27-5.8-36.5-18.9l13.3-12c4.7,8.6,12.6,13.2,22.4,13.2
		c9.2,0,15.9-6,15.9-14c0-4.2-2.1-7.7-6.2-10.3c-2.1-1.2-6.2-3-14.2-5.6c-19.3-6.5-25.9-13.5-25.9-27.2
		C191.5,211.2,205.7,199.1,224.3,199.1L224.3,199.1z"/>
	<polygon points="459,200.8 481.5,200.8 509.6,267.4 538,200.8 560.3,200.8 514.8,302.5 503.7,302.5 	"/>
	<polygon points="157.8,200.9 178.4,200.9 178.4,300.1 157.8,300.1 	"/>
	<polygon points="569.6,200.9 627.8,200.9 627.8,217.7 590.1,217.7 590.1,239.8 626.4,239.8 626.4,256.5 590.1,256.5 590.1,283.3 
		627.8,283.3 627.8,300.1 569.6,300.1 	"/>
	<path d="M685.2,258.3c15.5-3,24-12.9,24-28.1c0-18.6-13.6-29.3-37.3-29.3h-30.5v99.1h20.5v-39.8h2.7l28.4,39.8h25.3L685.2,258.3z
		 M667.9,246.6h-6v-30h6.3c12.8,0,19.7,5,19.7,14.7C688,241.2,681.1,246.6,667.9,246.6z"/>
	<path d="M91.8,200.9H61.7v99.1h30c15.9,0,27.5-3.5,37.6-11.4c12-9.4,19.1-23.5,19.1-38.1C148.4,221.3,125.2,200.9,91.8,200.9z
		 M115.8,275.4c-6.5,5.5-14.8,7.9-28.1,7.9h-5.5v-65.6h5.5c13.3,0,21.3,2.2,28.1,8c7.1,6,11.4,15.2,11.4,24.7
		C127.2,260,122.9,269.5,115.8,275.4z"/>
</g>
</svg>
