<?xml version="1.0" encoding="utf-8"?>
<!-- Generator: Adobe Illustrator 25.3.1, SVG Export Plug-In . SVG Version: 6.00 Build 0)  -->
<svg xmlns="http://www.w3.org/2000/svg" xmlns:xlink="http://www.w3.org/1999/xlink" x="0px"
	 y="0px" viewBox="0 0 750 471" style="enable-background:new 0 0 750 471;" xml:space="preserve">
<style type="text/css">
	.st0{fill:#4D4D4D;}
	.st1{fill:#FFFFFF;}
	.st2{fill:#F47216;}
</style>
<g>
	<g id="discover">
		<path id="Shape" class="st0" d="M52.9,0C23.7,0,0,23.2,0,51.7v367.6C0,447.9,23.7,471,52.9,471h644.2c29.2,0,52.9-23.2,52.9-51.7
			V252.5V51.7C750,23.1,726.3,0,697.1,0H52.9z"/>
		<path id="Shape_1_" class="st1" d="M314.6,152.2c8.5,0,15.6,1.7,24.3,5.9v22.1c-8.2-7.6-15.3-10.8-24.8-10.8
			c-18.5,0-33.1,14.6-33.1,33.1c0,19.5,14.1,33.2,34,33.2c9,0,15.9-3,23.8-10.5v22.1c-9,4-16.3,5.6-24.8,5.6
			c-30.1,0-53.4-21.9-53.4-50.2C260.7,174.6,284.6,152.2,314.6,152.2z M221.2,152.8c11.1,0,21.3,3.6,29.8,10.7l-10.3,12.9
			c-5.1-5.5-10-7.8-15.9-7.8c-8.5,0-14.7,4.6-14.7,10.7c0,5.2,3.5,7.9,15.3,12.1c22.5,7.8,29.1,14.7,29.1,30
			c0,18.6-14.4,31.6-34.9,31.6c-15,0-26-5.6-35.1-18.3l12.8-11.7c4.5,8.4,12.1,12.8,21.6,12.8c8.8,0,15.3-5.8,15.3-13.6
			c0-4-2-7.5-5.9-10c-2-1.2-5.9-2.9-13.7-5.5c-18.5-6.3-24.9-13.1-24.9-26.4C189.6,164.6,203.3,152.8,221.2,152.8z M446.9,154.5
			h21.6l27,64.6l27.4-64.6h21.4l-43.7,98.7h-10.6L446.9,154.5z M64.8,154.6h29c32,0,54.4,19.8,54.4,48.2c0,14.2-6.8,27.9-18.4,36.9
			c-9.7,7.7-20.8,11.1-36.1,11.1H64.8V154.6z M157.3,154.6H177v96.2h-19.8V154.6z M553.2,154.6h56v16.3h-36.3v21.4h34.9v16.3h-34.9
			v26h36.3v16.3h-56V154.6z M622.3,154.6h29.3c22.8,0,35.8,10.4,35.8,28.4c0,14.7-8.2,24.4-23.1,27.3l31.9,40.5h-24.3l-27.3-38.7
			H642v38.7h-19.7V154.6z M642,169.8v29.1h5.8c12.6,0,19.3-5.2,19.3-14.9c0-9.4-6.7-14.3-19-14.3H642z M84.6,170.9v63.6h5.3
			c12.8,0,20.8-2.3,27-7.6c6.8-5.8,10.9-15,10.9-24.3c0-9.2-4.1-18.2-10.9-24c-6.5-5.6-14.3-7.8-27-7.8H84.6z"/>
		<path id="Shape_2_" class="st2" d="M399.2,151.6c29.8,0,53.9,22.2,53.9,49.6v0c0,27.4-24.1,49.6-53.9,49.6
			c-29.8,0-53.9-22.2-53.9-49.6v0C345.3,173.7,369.4,151.6,399.2,151.6z M750,271.1c-25,17.2-212.6,140.4-537.3,199.9h484.4
			c29.2,0,52.9-23.2,52.9-51.7V271.1z"/>
	</g>
</g>
</svg>
