<?xml version="1.0" encoding="utf-8"?>
<!-- Generator: Adobe Illustrator 23.1.0, SVG Export Plug-In . SVG Version: 6.00 Build 0)  -->
<svg version="1.1" id="Capa_1" xmlns="http://www.w3.org/2000/svg" xmlns:xlink="http://www.w3.org/1999/xlink" x="0px" y="0px"
	 viewBox="0 0 512 512" style="enable-background:new 0 0 512 512;" xml:space="preserve">
<style type="text/css">
	.st0{fill:#394180;}
	.st1{fill:#17B0F6;}
	.st2{fill:#FF504D;}
	.st3{fill:#F9F9F9;}
	.st4{fill:#E8E8E8;}
	.st5{fill:#FF5A5A;}
	.st6{fill:#EA4444;}
</style>
<circle class="st0" cx="256" cy="256" r="256"/>
<g>
	<path class="st1" d="M469.9,206.2c-3.9,0-7-3.1-7-7v-11.3c0-3.9,3.1-7,7-7s7,3.1,7,7v11.3C476.9,203.1,473.8,206.2,469.9,206.2z"/>
	<path class="st1" d="M469.9,263.8c-3.9,0-7-3.1-7-7v-11.3c0-3.9,3.1-7,7-7s7,3.1,7,7v11.3C476.9,260.6,473.8,263.8,469.9,263.8z"/>
	<path class="st1" d="M504.3,229.4H493c-3.9,0-7-3.1-7-7s3.1-7,7-7h11.3c3.9,0,7,3.1,7,7C511.3,226.2,508.2,229.4,504.3,229.4z"/>
	<path class="st1" d="M446.7,229.4h-11.3c-3.9,0-7-3.1-7-7s3.1-7,7-7h11.3c3.9,0,7,3.1,7,7C453.7,226.2,450.6,229.4,446.7,229.4z"/>
	<path class="st1" d="M391.9,22.7c-3.9,0-7-3.1-7-7V7c0-3.9,3.1-7,7-7s7,3.1,7,7v8.7C398.9,19.6,395.7,22.7,391.9,22.7z"/>
	<path class="st1" d="M391.9,67c-3.9,0-7-3.1-7-7v-8.7c0-3.9,3.1-7,7-7s7,3.1,7,7V60C398.9,63.9,395.7,67,391.9,67z"/>
	<path class="st1" d="M418.4,40.6h-8.7c-3.9,0-7-3.1-7-7s3.1-7,7-7h8.7c3.9,0,7,3.1,7,7S422.2,40.6,418.4,40.6z"/>
	<path class="st1" d="M374,40.6h-8.7c-3.9,0-7-3.1-7-7s3.1-7,7-7h8.7c3.9,0,7,3.1,7,7S377.9,40.6,374,40.6z"/>
</g>
<path class="st2" d="M305.9,124.8c-1.3,0-2.6-0.3-3.7-1.1c-3.3-2.1-4.3-6.4-2.2-9.7c10.3-16.5,18.9-32.6,25.5-47.9
	c1.5-3.6,5.7-5.2,9.2-3.7c3.6,1.5,5.2,5.7,3.7,9.2c-6.9,16-15.8,32.7-26.5,49.8C310.5,123.6,308.2,124.8,305.9,124.8z"/>
<path class="st1" d="M216,234.7c-1.9,0-3.7-0.7-5.1-2.2c-2.7-2.8-2.5-7.3,0.3-9.9c0.3-0.3,32.6-30.8,64.9-73.9
	c2.3-3.1,6.7-3.7,9.8-1.4c3.1,2.3,3.7,6.7,1.4,9.8c-33,44.2-65.2,74.5-66.5,75.8C219.4,234.1,217.7,234.7,216,234.7z"/>
<path class="st3" d="M278.1,244.9c-1.9,0-3.8-0.8-5.2-2.3c-2.6-2.9-2.4-7.3,0.5-9.9c32.7-29.8,97.5-82.8,163.8-102.3
	c3.7-1.1,7.6,1,8.7,4.8c1.1,3.7-1,7.6-4.8,8.7C377.6,162.6,314.7,214,282.9,243C281.5,244.3,279.8,244.9,278.1,244.9z"/>
<g>
	<path class="st2" d="M290,308.8c-2.1,0-4.1-0.9-5.5-2.7c-2.4-3-1.9-7.5,1.1-9.9c2.3-1.9,58-45.3,133.2-30.8
		c3.8,0.7,6.3,4.4,5.6,8.2c-0.7,3.8-4.4,6.3-8.2,5.6c-68.9-13.2-121.2,27.6-121.8,28C293.1,308.3,291.6,308.8,290,308.8z"/>
	<path class="st2" d="M194.8,177.4c-1.1,0-2.1-0.2-3.1-0.7c-3.5-1.7-4.9-6-3.1-9.4c11.4-22.6,23.2-58.4,15.1-100.5
		c-0.7-3.8,1.8-7.5,5.6-8.2c3.8-0.7,7.5,1.8,8.2,5.6c8.8,46-4,84.9-16.4,109.5C199.8,176,197.4,177.4,194.8,177.4z"/>
</g>
<path class="st3" d="M286.4,370.6l-115.5,57.6l-67.3,33.5c-34.1-25.3-61.7-58.9-79.8-97.8l11.1-22.3l53-106.3l21-42.1L286.4,370.6z"
	/>
<path class="st4" d="M286.4,370.6l-182.8,91.1c-9.1-6.8-17.8-14.2-25.9-22.1l167.5-123.9L286.4,370.6z"/>
<g>
	<path class="st5" d="M76.7,438.7c-21.8-21.4-39.8-46.7-52.9-74.8v0l11.1-22.3L76.7,438.7z"/>
	<polygon class="st5" points="286.4,370.6 170.8,428.1 152.1,384.5 87.9,235.2 108.9,193.1 237.3,321.5 	"/>
</g>
<polygon class="st6" points="286.4,370.6 170.8,428.1 152.1,384.5 237.3,321.5 245.1,315.7 "/>
<path class="st3" d="M270.1,373.1L106.3,209.3c-7.9-7.9-7.9-20.8,0-28.7l0,0c7.9-7.9,20.8-7.9,28.7,0l163.8,163.8
	c7.9,7.9,7.9,20.8,0,28.7l0,0C290.9,381.1,278,381.1,270.1,373.1z"/>
<path class="st4" d="M298.8,344.4l-44.1-44.1c7.9,7.9,7.9,20.8,0,28.7s-20.8,7.9-28.7,0l44.1,44.1c7.9,7.9,20.8,7.9,28.7,0
	C306.8,365.2,306.8,352.3,298.8,344.4z"/>
<circle class="st3" cx="163.4" cy="128" r="7"/>
<circle class="st2" cx="257.3" cy="101.2" r="7"/>
<circle class="st1" cx="372.3" cy="122.3" r="7"/>
<g>
	<circle class="st3" cx="372.3" cy="323.5" r="7"/>
	<path class="st3" d="M254.9,10l8.7,7.8c0.7,0.7,1.8,0.9,2.7,0.7l11.4-2.8c2.4-0.6,4.5,1.8,3.5,4.1l-4.7,10.7
		c-0.4,0.9-0.3,1.9,0.2,2.8l6.2,9.9c1.3,2.1-0.4,4.8-2.8,4.6l-11.6-1.2c-1-0.1-2,0.3-2.6,1.1l-7.5,8.9c-1.6,1.9-4.7,1.1-5.2-1.3
		l-2.5-11.4c-0.2-1-0.9-1.8-1.8-2.1l-10.8-4.4c-2.3-0.9-2.5-4.1-0.4-5.4l10.1-5.9c0.9-0.5,1.4-1.4,1.5-2.4l0.9-11.7
		C250.1,9.6,253,8.4,254.9,10z"/>
</g>
<path class="st2" d="M486,69.6l6.1,12.9c0.5,1.1,1.5,1.9,2.7,2l14.1,2.3c3,0.5,4.1,4.2,1.9,6.3l-10.4,9.8c-0.9,0.8-1.3,2-1.1,3.2
	l2.2,14.1c0.5,3-2.7,5.2-5.4,3.8l-12.5-6.8c-1.1-0.6-2.3-0.6-3.4-0.1l-12.7,6.4c-2.7,1.4-5.8-1-5.3-3.9l2.6-14
	c0.2-1.2-0.2-2.4-1-3.3l-10.1-10.1c-2.1-2.2-0.9-5.8,2.1-6.2l14.1-1.8c1.2-0.2,2.2-0.9,2.8-2l6.5-12.7
	C480.8,66.8,484.7,66.9,486,69.6z"/>
</svg>
