<?xml version="1.0" encoding="utf-8"?>
<!-- Generator: Adobe Illustrator 25.3.1, SVG Export Plug-In . SVG Version: 6.00 Build 0)  -->
<svg xmlns="http://www.w3.org/2000/svg" xmlns:xlink="http://www.w3.org/1999/xlink" x="0px"
	 y="0px" viewBox="0 0 750 471" style="enable-background:new 0 0 750 471;" xml:space="preserve">
<style type="text/css">
	.st0{fill:#FFFFFF;}
	.st1{fill:#7673C0;}
	.st2{fill:#EB001B;}
	.st3{fill:#00A1DF;}
</style>
<g>
	<g id="maestro">
		<path d="M40,0h670c22.1,0,40,17.9,40,40v391c0,22.1-17.9,40-40,40H40c-22.1,0-40-17.9-40-40V40C0,17.9,17.9,0,40,0z"/>
		<g transform="translate(133.000000, 48.000000)">
			<path id="Shape" class="st0" d="M146.8,373.8V349c0-9.4-6-15.6-15.6-15.7c-5-0.1-10.3,1.5-13.9,7c-2.7-4.4-7-7-13.1-7
				c-4.6-0.2-9,2-11.6,5.9v-4.9h-8.6v39.6h8.7v-22c0-6.9,3.8-10.5,9.7-10.5c5.7,0,8.6,3.7,8.6,10.4v22h8.7v-21.9
				c0-6.9,4-10.5,9.7-10.5c5.9,0,8.7,3.7,8.7,10.4v22L146.8,373.8z M195.3,354v-19.8h-8.6v4.8c-2.7-3.6-6.9-5.8-12.5-5.8
				c-11.1,0-19.8,8.7-19.8,20.8c0,12.1,8.7,20.8,19.8,20.8c5.6,0,9.8-2.2,12.5-5.8v4.8h8.6V354z M163.3,354c0-7,4.6-12.7,12-12.7
				c7.1,0,11.9,5.5,11.9,12.7s-4.8,12.7-11.9,12.7C167.8,366.7,163.3,361,163.3,354L163.3,354z M379.4,333.2c2.9,0,5.8,0.5,8.5,1.6
				c2.5,1,4.8,2.5,6.8,4.4c1.9,1.9,3.4,4.1,4.5,6.6c2.1,5.3,2.1,11.2,0,16.5c-1,2.5-2.5,4.7-4.5,6.6c-1.9,1.9-4.2,3.4-6.8,4.4
				c-5.5,2.1-11.5,2.1-17,0c-2.5-1-4.8-2.5-6.7-4.4c-1.9-1.9-3.4-4.1-4.4-6.6c-2.1-5.3-2.1-11.2,0-16.5c1-2.5,2.5-4.7,4.4-6.6
				c1.9-1.9,4.2-3.4,6.7-4.4C373.6,333.7,376.5,333.2,379.4,333.2z M379.4,341.3c-1.7,0-3.4,0.3-4.9,0.9c-1.5,0.6-2.8,1.5-3.9,2.6
				c-1.1,1.1-2,2.5-2.6,4c-1.3,3.3-1.3,7,0,10.3c0.6,1.5,1.5,2.9,2.6,4c1.1,1.1,2.4,2,3.9,2.6c3.2,1.2,6.7,1.2,9.8,0
				c1.5-0.6,2.8-1.5,3.9-2.6c1.1-1.1,2-2.5,2.6-4c1.3-3.3,1.3-7,0-10.3c-0.6-1.5-1.5-2.9-2.6-4c-1.1-1.1-2.5-2-3.9-2.6
				C382.8,341.6,381.1,341.3,379.4,341.3L379.4,341.3z M242.1,354c-0.1-12.3-7.7-20.8-18.8-20.8c-11.6,0-19.7,8.4-19.7,20.8
				c0,12.6,8.4,20.8,20.3,20.8c6,0,11.4-1.5,16.2-5.5l-4.2-6.4c-3.3,2.6-7.3,4.1-11.5,4.1c-5.5,0-10.6-2.6-11.8-9.7h29.4
				C242,356.2,242.1,355.2,242.1,354z M212.6,350.5c0.9-5.7,4.4-9.6,10.5-9.6c5.5,0,9.1,3.5,10,9.6H212.6z M278.3,344.3
				c-3.8-2.2-8-3.3-12.3-3.4c-4.7,0-7.5,1.7-7.5,4.6c0,2.6,3,3.4,6.7,3.9l4,0.6c8.6,1.2,13.8,4.9,13.8,11.8c0,7.5-6.6,12.9-18,12.9
				c-6.5,0-12.4-1.7-17.1-5.1l4.1-6.7c3.8,2.8,8.4,4.3,13.2,4.1c5.9,0,9-1.7,9-4.8c0-2.2-2.2-3.5-6.9-4.1l-4.1-0.6
				c-8.8-1.2-13.6-5.2-13.6-11.7c0-7.9,6.4-12.7,16.5-12.7c6.3,0,12,1.4,16.1,4.1L278.3,344.3z M319.7,342.1h-14.1V360
				c0,4,1.4,6.6,5.7,6.6c2.7-0.1,5.3-0.9,7.6-2.2l2.5,7.4c-3.2,2-7,3.1-10.8,3.1c-10.2,0-13.7-5.5-13.7-14.6v-18h-8v-7.9h8v-12h8.7
				v12h14.1L319.7,342.1z M349.5,333.2c2.1,0,4.2,0.4,6.1,1.1l-2.6,8.1c-1.7-0.7-3.5-1-5.4-1c-5.6,0-8.4,3.6-8.4,10.2v22.2h-8.6
				v-39.6h8.5v4.8C341.1,335.3,345.1,333.1,349.5,333.2L349.5,333.2z"/>
			<g>
				<rect id="Rectangle-path" x="176.9" y="32.4" class="st1" width="130.5" height="234.5"/>
				<path class="st2" d="M185.2,149.6c0-45.8,21-89,57-117.3C181.1-15.7,93.3-8.7,40.5,48.5s-52.8,145.2,0,202.4
					s140.6,64.1,201.7,16.1C206.2,238.6,185.2,195.4,185.2,149.6z"/>
				<path id="Shape_1_" class="st3" d="M483.5,149.6c0,57.1-32.6,109.2-84,134.1s-112.5,18.4-157.3-16.9c36-28.3,57-71.5,57-117.3
					s-21-89-57-117.3c44.9-35.3,106-41.8,157.3-16.9S483.5,92.5,483.5,149.6z"/>
			</g>
		</g>
	</g>
</g>
</svg>
