<?xml version="1.0" encoding="utf-8"?>
<!-- Generator: Adobe Illustrator 25.3.1, SVG Export Plug-In . SVG Version: 6.00 Build 0)  -->
<svg version="1.1" id="Layer_1" xmlns="http://www.w3.org/2000/svg" xmlns:xlink="http://www.w3.org/1999/xlink" x="0px" y="0px"
	 viewBox="0 0 482.5 374" style="enable-background:new 0 0 482.5 374;" xml:space="preserve">
<style type="text/css">
	.st0{fill:#FF5F00;}
	.st1{fill:#EB001B;}
	.st2{fill:#F79E1B;}
</style>
<g>
	<path d="M87.4,373.2v-24.9c0-9.5-5.8-15.7-15.3-15.7c-5,0-10.4,1.7-14.1,7c-2.9-4.6-7-7-13.2-7c-4.7-0.2-9.2,2-12,5.8v-5h-7.9v39.8
		h7.9v-22.8c0-7,4.1-10.4,9.9-10.4s9.1,3.7,9.1,10.4v22.8h7.9v-22.8c0-7,4.1-10.4,9.9-10.4s9.1,3.7,9.1,10.4v22.8H87.4z
		 M216.6,333.8h-14.5v-12h-7.9v12H186v7h8.3v18.7c0,9.1,3.3,14.5,13.2,14.5c3.8-0.1,7.5-1.1,10.8-2.9l-2.5-7
		c-2.2,1.4-4.8,2.1-7.5,2.1c-4.1,0-6.2-2.5-6.2-6.6v-19h14.5L216.6,333.8L216.6,333.8z M290.3,332.6c-4.4-0.1-8.5,2.1-10.8,5.8v-5
		h-7.9v39.8h7.9v-22.3c0-6.6,3.3-10.8,8.7-10.8c1.8,0.1,3.6,0.4,5.4,0.8l2.5-7.5C294.2,332.9,292.3,332.7,290.3,332.6L290.3,332.6z
		 M178.9,336.7c-4.1-2.9-9.9-4.1-16.1-4.1c-9.9,0-16.1,4.6-16.1,12.4c0,6.6,4.6,10.4,13.2,11.6l4.1,0.4c4.6,0.8,7.5,2.5,7.5,4.6
		c0,2.9-3.3,5-9.5,5c-4.7,0.1-9.4-1.4-13.2-4.1l-4.1,6.2c5.8,4.1,12.8,5,17,5c11.6,0,17.8-5.4,17.8-12.8c0-7-5-10.4-13.7-11.6
		l-4.1-0.4c-3.7-0.4-7-1.7-7-4.1c0-2.9,3.3-5,7.9-5c5,0,9.9,2.1,12.4,3.3L178.9,336.7z M299,353.3c0,12,7.9,20.7,20.7,20.7
		c5.8,0,9.9-1.2,14.1-4.6l-4.1-6.2c-2.9,2.4-6.6,3.7-10.4,3.7c-7,0-12.4-5.4-12.4-13.2s5.4-13.2,12.4-13.2c3.8,0,7.4,1.4,10.3,3.7
		l4.1-6.2c-4.1-3.3-8.3-4.6-14.1-4.6C307.3,332.6,299,341.3,299,353.3L299,353.3L299,353.3z M243.5,332.6
		c-11.6,0-19.5,8.3-19.5,20.7s8.3,20.7,20.3,20.7c5.8,0.1,11.5-1.8,16.1-5.4l-4.1-5.8c-3.3,2.6-7.4,4-11.6,4.1
		c-5.4,0-11.2-3.3-12-10.4h29.4v-3.3C262.2,340.9,254.7,332.6,243.5,332.6L243.5,332.6L243.5,332.6z M243.1,340
		c5.8,0,9.9,3.7,10.4,9.9h-21.5C233.2,344.2,236.9,340,243.1,340L243.1,340z M135.8,353.3v-19.9H128v5c-2.9-3.7-7-5.8-12.8-5.8
		c-11.2,0-19.5,8.7-19.5,20.7s8.3,20.7,19.5,20.7c5.8,0,9.9-2.1,12.8-5.8v5h7.9V353.3z M104,353.3c0-7.5,4.6-13.2,12.4-13.2
		c7.5,0,12,5.8,12,13.2c0,7.9-5,13.2-12,13.2C108.5,367,104,360.7,104,353.3L104,353.3z M410,332.6c-4.4-0.1-8.5,2.1-10.8,5.8v-5
		h-7.9v39.8h7.9v-22.3c0-6.6,3.3-10.8,8.7-10.8c1.8,0.1,3.6,0.4,5.4,0.8l2.5-7.5C413.9,332.9,412,332.7,410,332.6L410,332.6z
		 M379.4,353.3v-19.9h-7.9v5c-2.9-3.7-7-5.8-12.8-5.8c-11.2,0-19.5,8.7-19.5,20.7s8.3,20.7,19.5,20.7c5.8,0,9.9-2.1,12.8-5.8v5h7.9
		V353.3z M347.5,353.3c0-7.5,4.6-13.2,12.4-13.2c7.5,0,12,5.8,12,13.2c0,7.9-5,13.2-12,13.2C352.1,367,347.5,360.7,347.5,353.3z
		 M459.3,353.3v-35.6h-7.9v20.7c-2.9-3.7-7-5.8-12.8-5.8c-11.2,0-19.5,8.7-19.5,20.7s8.3,20.7,19.5,20.7c5.8,0,9.9-2.1,12.8-5.8v5
		h7.9V353.3z M427.4,353.3c0-7.5,4.6-13.2,12.4-13.2c7.5,0,12,5.8,12,13.2c0,7.9-5,13.2-12,13.2C432,367,427.4,360.8,427.4,353.3
		L427.4,353.3z"/>
	<g>
		<rect x="169.8" y="31.9" class="st0" width="143.7" height="234.4"/>
		<path class="st1" d="M184.3,149.1c0-45.7,20.9-88.9,56.7-117.2C176.3-19,82.6-7.8,31.7,56.9S-8,215.4,56.7,266.3
			c54.1,42.5,130.2,42.5,184.3,0C205.2,238,184.3,194.8,184.3,149.1z"/>
		<path class="st2" d="M482.5,149.1c0.1,82.3-66.6,149-148.8,149.1c-33.4,0-65.9-11.2-92.2-31.8c64.7-51.2,75.7-145.2,24.5-209.9
			c-7.2-9.1-15.4-17.3-24.5-24.5c64.7-50.8,158.3-39.6,209.2,25.1C471.3,83.2,482.5,115.7,482.5,149.1z"/>
	</g>
</g>
</svg>
