<?xml version="1.0" encoding="utf-8"?>
<!-- Generator: Adobe Illustrator 25.3.1, SVG Export Plug-In . SVG Version: 6.00 Build 0)  -->
<svg xmlns="http://www.w3.org/2000/svg" xmlns:xlink="http://www.w3.org/1999/xlink" x="0px"
	 y="0px" viewBox="0 0 750 471" style="enable-background:new 0 0 750 471;" xml:space="preserve">
<style type="text/css">
	.st0{fill:#00ADBB;}
	.st1{fill-rule:evenodd;clip-rule:evenodd;fill:#FFFFFF;}
</style>
<path class="st0" d="M40,0h670c22.1,0,40,17.9,40,40v391c0,22.1-17.9,40-40,40H40c-22.1,0-40-17.9-40-40V40C0,17.9,17.9,0,40,0z"/>
<g>
	<path class="st1" d="M608.1,171c-7.8,0-16.4,4.4-19.8,12.2l-36.5,83.6l-13.1-83.6c-1.5-7.8-6.9-12.2-15.3-12.2h-46.2l39.5,138.9
		c0.7,2.7,0.9,5.6,0.3,8.7c-2.1,11.6-13.1,21-24.7,21h-25.9c-6.6,0-10.9,4.1-13,13.3l-5.7,34.4h45.6c23.8,0,51.7-11.9,70.3-45
		L654.8,171H608.1z"/>
	<path class="st1" d="M159.5,129.5c13.6,0,20.2,5.4,17.8,19.1l-3.9,22.3h31.4l-6.9,39.2h-31.4l-8.5,48.5
		c-3,16.9,13.8,19.1,23.4,19.1c1.9,0,3.5,0,4.6-0.1l-7.7,43.7c-2.4,0.3-4.8,0.6-10,0.6c-23.8,0-68.8-6.4-60-56.6l9.7-55.1H95.2
		l6.9-39.2h22.6l7.3-41.4h27.5V129.5z"/>
	<path class="st1" d="M423,172.7l-8.1,45.6c9.9,5.1,16.7,15.4,16.7,27.3c0,15.7-11.8,28.5-26.9,30.4l-8.1,45.6
		c1.4,0.1,2.9,0.1,4.3,0.1c42.1,0,76.2-34.1,76.2-76.2C477.2,211.3,454.4,182.2,423,172.7"/>
	<path class="st1" d="M387.2,273c-9.9-5-16.7-15.4-16.7-27.3c0-15.6,11.8-28.5,26.9-30.4l8-45.6c-1.4-0.1-2.9-0.2-4.3-0.2
		c-42.1,0-76.2,34.1-76.2,76.2c0,34.4,22.8,63.5,54.2,73L387.2,273z"/>
	<path class="st1" d="M222.9,171h26.9c13.7,0,20.2,5.5,17.8,19.1l-2.9,16.6c10-20.4,31.8-37.2,54.1-37.2c2.9,0,5.7,0.6,5.7,0.6
		l-8.7,49.4c0,0-3.9-0.9-10-0.9c-11.9,0-32,3.8-43.2,26.1c-2.7,5.5-4.7,12.2-6.1,20.3l-9.7,55.5h-50.2L222.9,171z"/>
	<path class="st1" d="M642.5,323.8c0-0.9-0.3-1.6-0.9-2.2c-0.6-0.6-1.4-0.9-2.4-0.9h-3.3v6.2h3.3c1,0,1.8-0.3,2.4-0.9
		C642.2,325.5,642.5,324.7,642.5,323.8 M645.5,336.2h-2.9l-4-7.2h-2.7v7.2h-2.4v-17.7h6c1.5,0,2.9,0.5,3.9,1.5
		c1.1,1,1.6,2.3,1.6,3.8c0,2.5-1.3,4.1-3.8,4.9L645.5,336.2z M652.3,327.4c0,3.8-1.3,7-4,9.7c-2.6,2.7-5.9,4-9.6,4
		c-3.7,0-6.9-1.3-9.6-4c-2.6-2.7-3.9-5.9-3.9-9.7c0-3.8,1.3-7,3.9-9.7c2.7-2.7,5.8-4,9.6-4c3.7,0,7,1.3,9.6,4
		C651,320.4,652.3,323.6,652.3,327.4 M654.8,327.4c0,4.5-1.6,8.3-4.7,11.4c-3.1,3.1-6.9,4.7-11.4,4.7c-4.4,0-8.2-1.6-11.4-4.7
		c-3.1-3.1-4.7-6.9-4.7-11.4c0-4.4,1.6-8.2,4.7-11.4c3.2-3.1,7-4.7,11.4-4.7c4.5,0,8.3,1.6,11.4,4.7S654.8,322.9,654.8,327.4"/>
</g>
</svg>
