<?xml version="1.0" encoding="utf-8"?>
<!-- Generator: Adobe Illustrator 25.3.1, SVG Export Plug-In . SVG Version: 6.00 Build 0)  -->
<svg version="1.1" id="Layer_1" xmlns="http://www.w3.org/2000/svg" xmlns:xlink="http://www.w3.org/1999/xlink" x="0px" y="0px"
	 viewBox="0 0 750 471" style="enable-background:new 0 0 750 471;" xml:space="preserve">
<style type="text/css">
	.st0{fill-rule:evenodd;clip-rule:evenodd;fill:#323E48;}
	.st1{fill-rule:evenodd;clip-rule:evenodd;fill:#00ADBB;}
</style>
<g>
	<path class="st0" d="M632.5,159.9c-8.6,0-18.1,4.8-21.9,13.4l-40.3,92.4l-14.5-92.4c-1.7-8.6-7.6-13.4-16.9-13.4h-51l43.7,153.4
		c0.8,2.9,1,6.2,0.4,9.6c-2.3,12.8-14.5,23.2-27.3,23.2H476c-7.3,0-12,4.5-14.4,14.7l-6.3,38h50.3c26.3,0,57.1-13.2,77.7-49.7
		l100.8-189.2L632.5,159.9L632.5,159.9z"/>
	<path class="st0" d="M137,114.2c15.1,0,22.4,6,19.7,21.1l-4.3,24.6H187l-7.6,43.2h-34.6l-9.4,53.5c-3.3,18.7,15.2,21.1,25.8,21.1
		c2.1,0,3.9,0,5.1-0.1l-8.5,48.2c-2.6,0.3-5.3,0.6-11,0.6c-26.3,0-76-7-66.3-62.5L91.2,203H65.9l7.6-43.2h25l8-45.7L137,114.2
		L137,114.2z"/>
	<path class="st1" d="M428,161.9l-8.9,50.4c11,5.6,18.5,17,18.5,30.1c0,17.3-13,31.5-29.7,33.6l-8.9,50.4c1.6,0.1,3.2,0.2,4.8,0.2
		c46.5,0,84.2-37.7,84.2-84.1C487.9,204.5,462.7,172.3,428,161.9"/>
	<path class="st1" d="M388.4,272.6c-11-5.6-18.5-17-18.5-30.1c0-17.2,13-31.5,29.7-33.5l8.9-50.4c-1.6-0.1-3.2-0.2-4.8-0.2
		c-46.5,0-84.1,37.7-84.1,84.1c0,38,25.2,70.2,59.9,80.6L388.4,272.6z"/>
	<path class="st0" d="M207,159.9h29.8c15.1,0,22.3,6,19.7,21.1l-3.3,18.3c11.1-22.5,35.1-41.1,59.8-41.1c3.2,0,6.4,0.6,6.4,0.6
		l-9.6,54.5c0,0-4.3-1-11.1-1c-13.1,0-35.4,4.2-47.8,28.9c-3,6.1-5.2,13.5-6.8,22.4L233.4,325H178L207,159.9z"/>
	<path class="st0" d="M670.5,328.8c0-1-0.3-1.8-1-2.5s-1.6-1-2.6-1h-3.6v6.8h3.6c1.1,0,2-0.3,2.6-1
		C670.2,330.6,670.5,329.8,670.5,328.8 M673.8,342.5h-3.2l-4.5-8h-2.9v8h-2.7V323h6.6c1.7,0,3.2,0.6,4.4,1.7s1.8,2.5,1.8,4.2
		c0,2.7-1.4,4.5-4.2,5.4L673.8,342.5z M681.3,332.7c0,4.2-1.5,7.8-4.4,10.7c-2.9,3-6.5,4.4-10.6,4.4s-7.6-1.5-10.6-4.4
		c-2.9-2.9-4.3-6.5-4.3-10.7s1.4-7.8,4.3-10.7c2.9-3,6.5-4.5,10.6-4.5s7.7,1.5,10.6,4.5C679.8,325,681.3,328.5,681.3,332.7
		 M684.1,332.7c0,4.9-1.7,9.1-5.2,12.6c-3.4,3.5-7.6,5.2-12.6,5.2c-4.9,0-9.1-1.8-12.6-5.2c-3.5-3.5-5.2-7.7-5.2-12.6
		s1.7-9.1,5.2-12.6s7.7-5.2,12.6-5.2c4.9,0,9.1,1.7,12.6,5.2C682.3,323.6,684.1,327.8,684.1,332.7"/>
</g>
</svg>
