<?xml version="1.0" encoding="utf-8"?>
<!-- Generator: Adobe Illustrator 25.3.1, SVG Export Plug-In . SVG Version: 6.00 Build 0)  -->
<svg version="1.1" id="Layer_1" xmlns="http://www.w3.org/2000/svg" xmlns:xlink="http://www.w3.org/1999/xlink" x="0px" y="0px"
	 viewBox="0 0 750 471" style="enable-background:new 0 0 750 471;" xml:space="preserve">
<style type="text/css">
	.st0{fill:#0E4595;}
	.st1{fill:#F2AE14;}
</style>
<g id="visa">
	<path id="Shape" class="st0" d="M278.2,334.2l33.4-195.8h53.4l-33.4,195.8H278.2L278.2,334.2z"/>
	<path id="path13" class="st0" d="M524.3,142.7c-10.6-4-27.1-8.2-47.8-8.2c-52.7,0-89.9,26.6-90.2,64.6
		c-0.3,28.1,26.5,43.8,46.8,53.2c20.8,9.6,27.8,15.7,27.7,24.3c-0.1,13.1-16.6,19.1-31.9,19.1c-21.4,0-32.7-3-50.2-10.3l-6.9-3.1
		l-7.5,43.8c12.5,5.5,35.5,10.2,59.4,10.4c56.1,0,92.5-26.2,92.9-66.9c0.2-22.3-14-39.2-44.8-53.2c-18.6-9.1-30.1-15.1-30-24.3
		c0-8.1,9.7-16.8,30.6-16.8c17.4-0.3,30.1,3.5,39.9,7.5l4.8,2.3L524.3,142.7"/>
	<path id="Path" class="st0" d="M661.6,138.5h-41.2c-12.8,0-22.3,3.5-27.9,16.2l-79.2,179.4h56c0,0,9.2-24.1,11.2-29.4
		c6.1,0,60.6,0.1,68.3,0.1c1.6,6.9,6.5,29.3,6.5,29.3h49.5L661.6,138.5L661.6,138.5z M596.2,264.9c4.4-11.3,21.3-54.7,21.3-54.7
		c-0.3,0.5,4.4-11.3,7.1-18.7l3.6,16.9c0,0,10.2,46.7,12.4,56.5L596.2,264.9L596.2,264.9L596.2,264.9z"/>
	<path id="path16" class="st0" d="M232.9,138.5L180.7,272l-5.6-27.1c-9.7-31.3-40-65.2-73.9-82.1L149,333.9l56.5-0.1l84-195.4
		L232.9,138.5"/>
	<path id="path18" class="st1" d="M131.9,138.5h-86l-0.7,4.1c66.9,16.2,111.2,55.4,129.6,102.4l-18.7-90
		C152.9,142.6,143.5,138.9,131.9,138.5"/>
</g>
</svg>
