<svg height="512" viewBox="0 0 512 512" width="512" xmlns="http://www.w3.org/2000/svg" xmlns:xlink="http://www.w3.org/1999/xlink"><linearGradient id="New_Gradient_Swatch_3" gradientUnits="userSpaceOnUse" x1="144.999" x2="339.295" y1="206.042" y2="11.746"><stop offset=".011" stop-color="#606082"/><stop offset="1" stop-color="#83839e"/></linearGradient><linearGradient id="New_Gradient_Swatch_21" gradientUnits="userSpaceOnUse" x1="75.515" x2="436.485" y1="476.485" y2="115.515"><stop offset=".011" stop-color="#fdecbf"/><stop offset="1" stop-color="#fef9ea"/></linearGradient><linearGradient id="New_Gradient_Swatch_4" gradientUnits="userSpaceOnUse" x1="120.21" x2="239.79" y1="187.79" y2="68.21"><stop offset=".011" stop-color="#cacad5"/><stop offset="1" stop-color="#ededf1"/></linearGradient><linearGradient id="New_Gradient_Swatch_4-2" x1="272.21" x2="391.79" xlink:href="#New_Gradient_Swatch_4" y1="187.79" y2="68.21"/><linearGradient id="New_Gradient_Swatch_22" gradientUnits="userSpaceOnUse" x1="304.21" x2="423.79" y1="235.79" y2="116.21"><stop offset=".011" stop-color="#dcdce3"/><stop offset="1" stop-color="#ededf1"/></linearGradient><linearGradient id="New_Gradient_Swatch_22-2" x1="88.21" x2="207.79" xlink:href="#New_Gradient_Swatch_22" y1="235.79" y2="116.21"/><linearGradient id="New_Gradient_Swatch_13" gradientUnits="userSpaceOnUse" x1="103.515" x2="408.485" y1="600.485" y2="295.515"><stop offset="0" stop-color="#d46669"/><stop offset="1" stop-color="#dd888a"/></linearGradient><linearGradient id="New_Gradient_Swatch_1" gradientUnits="userSpaceOnUse" x1="97.531" x2="458.501" y1="498.501" y2="137.531"><stop offset=".004" stop-color="#f1cccd"/><stop offset="1" stop-color="#faeeee"/></linearGradient><linearGradient id="New_Gradient_Swatch_16" gradientUnits="userSpaceOnUse" x1="105.934" x2="466.904" y1="506.904" y2="145.934"><stop offset=".004" stop-color="#dd888a"/><stop offset="1" stop-color="#ecbbbc"/></linearGradient><g id="_05-bed" data-name="05-bed"><g id="gradient"><path d="m440 4h-368a36.04 36.04 0 0 0 -36 36v120a12 12 0 0 0 12 12h416a12 12 0 0 0 12-12v-120a36.04 36.04 0 0 0 -36-36z" fill="url(#New_Gradient_Swatch_3)"/><path d="m507.9 398.414-32-240a12 12 0 0 0 -11.9-10.414h-416a12 12 0 0 0 -11.9 10.414l-32 240a12 12 0 0 0 11.9 13.586h480a12 12 0 0 0 11.9-13.586z" fill="url(#New_Gradient_Swatch_21)"/><rect fill="url(#New_Gradient_Swatch_4)" height="120" rx="28" width="152" x="104" y="68"/><rect fill="url(#New_Gradient_Swatch_4-2)" height="120" rx="28" width="152" x="256" y="68"/><rect fill="url(#New_Gradient_Swatch_22)" height="120" rx="28" width="152" x="288" y="116"/><rect fill="url(#New_Gradient_Swatch_22-2)" height="120" rx="28" width="152" x="72" y="116"/><path d="m496 388h-480a12 12 0 0 0 -12 12v96a12 12 0 0 0 15.8 11.384l46.147-15.384h380.106l46.152 15.384a12 12 0 0 0 15.795-11.384v-96a12 12 0 0 0 -12-12z" fill="url(#New_Gradient_Swatch_13)"/><path d="m488.906 256h-465.812l-18.989 142.414a12 12 0 0 0 11.895 13.586h480a12 12 0 0 0 11.9-13.586z" fill="url(#New_Gradient_Swatch_1)"/><path d="m494.077 294.783h-476.154l-13.818 103.631a12 12 0 0 0 11.895 13.586h480a12 12 0 0 0 11.9-13.586z" fill="url(#New_Gradient_Swatch_16)"/></g></g></svg>