<?xml version="1.0" standalone="no"?>
<!DOCTYPE svg PUBLIC "-//W3C//DTD SVG 20010904//EN"
 "http://www.w3.org/TR/2001/REC-SVG-20010904/DTD/svg10.dtd">
<svg version="1.0" xmlns="http://www.w3.org/2000/svg"
 width="800.000000pt" height="800.000000pt" viewBox="0 0 800.000000 800.000000"
 preserveAspectRatio="xMidYMid meet">
<metadata>
Created by potrace 1.14, written by Peter Selinger 2001-2017
</metadata>
<g transform="translate(0.000000,800.000000) scale(0.100000,-0.100000)"
fill="#000000" stroke="none">
<path d="M924 6814 c-32 -110 -12 -220 55 -309 33 -44 69 -70 218 -160 251
-152 716 -463 818 -547 6 -5 48 -38 95 -73 97 -74 203 -157 210 -165 3 -3 41
-35 85 -71 44 -36 94 -79 112 -95 18 -16 63 -56 102 -89 105 -91 444 -435 552
-561 96 -113 236 -293 304 -393 180 -262 388 -683 372 -754 -2 -12 -23 -78
-45 -147 -22 -69 -70 -219 -107 -335 -36 -115 -68 -216 -71 -224 -3 -10 -12
-3 -29 20 -13 19 -28 39 -32 44 -4 6 -35 46 -67 90 -55 75 -213 274 -225 285
-3 3 -28 32 -56 65 -161 193 -555 592 -759 768 -12 10 -37 33 -56 50 -20 18
-65 57 -100 87 -36 30 -67 57 -70 60 -3 3 -30 25 -60 50 -30 25 -57 47 -60 50
-13 15 -274 217 -425 330 -478 358 -1091 753 -1515 978 -47 24 -95 51 -107 58
-27 17 -35 7 -53 -59 -18 -65 -7 -163 24 -230 40 -84 85 -123 256 -220 92 -52
459 -278 509 -313 2 -2 -13 -40 -32 -86 -54 -127 -87 -234 -103 -336 -3 -20
-7 -39 -9 -42 -18 -29 -27 -840 -12 -995 28 -275 125 -533 286 -760 77 -109
256 -286 371 -367 160 -113 408 -223 570 -253 54 -10 163 -25 205 -29 28 -3
399 -5 826 -5 l776 -1 57 -120 c31 -66 56 -124 56 -129 0 -5 7 -22 15 -37 8
-16 45 -121 81 -234 36 -113 70 -214 74 -225 5 -11 23 -67 40 -125 18 -58 35
-108 39 -112 4 -5 40 103 81 240 40 136 88 292 106 347 31 97 129 342 149 377
9 16 74 17 845 21 459 2 853 7 875 11 179 34 302 71 435 133 465 215 792 642
886 1156 26 140 28 930 3 1090 -28 181 -87 368 -150 476 -11 19 -18 40 -15 47
5 13 346 220 511 310 107 59 167 115 203 192 23 48 27 70 27 142 -1 52 -6 98
-15 118 l-15 34 -110 -58 c-424 -221 -862 -490 -1315 -809 -79 -55 -314 -228
-320 -235 -3 -3 -34 -28 -70 -55 -174 -132 -484 -394 -660 -559 -376 -354
-683 -700 -948 -1069 -50 -70 -94 -129 -98 -130 -7 -2 -5 -6 -94 273 -34 107
-80 250 -101 316 l-40 122 22 63 c96 280 253 563 501 904 22 30 207 256 237
290 155 172 360 375 522 517 35 31 75 66 89 78 55 49 272 222 385 307 252 190
566 397 881 581 129 76 176 119 215 197 20 43 24 64 24 145 -1 52 -6 107 -13
123 l-12 27 -90 -45 c-409 -205 -1011 -600 -1438 -942 l-33 -26 -1508 0 -1508
0 -109 84 c-285 221 -559 412 -895 622 -118 73 -410 242 -488 281 l-50 26 -17
-56z m4186 -1293 c0 -3 -53 -57 -117 -121 -168 -167 -244 -248 -363 -390 -25
-29 -50 -58 -56 -64 -21 -22 -198 -263 -254 -346 -87 -131 -147 -232 -226
-384 l-72 -139 -26 51 c-44 87 -136 243 -204 347 -57 86 -226 320 -242 335 -3
3 -29 34 -59 70 -151 184 -420 465 -574 602 -20 19 -37 36 -37 38 0 3 502 5
1115 5 613 0 1115 -2 1115 -4z m1886 -718 c41 -91 76 -209 94 -318 13 -83 16
-170 15 -515 -2 -385 -4 -422 -24 -519 -74 -350 -285 -642 -592 -821 -112 -66
-267 -124 -389 -145 -19 -4 -46 -9 -60 -12 -37 -7 -1471 -10 -1475 -3 -2 3 26
54 63 113 l66 107 336 1 c342 1 353 1 453 20 460 84 831 484 885 954 15 129 4
718 -14 747 -6 9 159 135 376 288 96 68 186 132 200 142 14 9 28 18 33 18 4 0
19 -26 33 -57z m-5784 -79 c68 -48 192 -139 277 -203 85 -64 169 -127 188
-140 30 -22 33 -28 28 -60 -11 -63 -7 -613 4 -681 18 -107 21 -119 47 -198 69
-205 208 -398 383 -530 129 -97 279 -164 466 -208 17 -4 190 -9 385 -11 l355
-5 56 -86 c31 -48 64 -99 73 -113 l16 -25 -718 2 c-394 1 -727 4 -738 7 -12 3
-37 8 -55 11 -55 9 -70 13 -159 41 -305 97 -569 324 -720 617 -27 54 -50 99
-49 101 0 1 -2 9 -5 17 -39 116 -60 202 -71 300 -9 70 -9 789 0 861 13 115 35
209 72 304 11 28 23 58 26 68 4 9 9 17 11 17 3 0 61 -39 128 -86z m4832 -786
c-1 -117 -4 -231 -8 -253 -25 -151 -90 -292 -181 -396 -61 -69 -166 -149 -247
-188 -138 -66 -174 -72 -442 -78 l-240 -5 34 43 c245 317 618 706 980 1020 47
41 87 78 89 83 12 27 16 -36 15 -226z m-3954 102 c3 -3 21 -18 40 -34 78 -64
363 -330 474 -442 149 -152 308 -325 411 -449 28 -33 56 -66 63 -73 6 -7 12
-16 12 -18 0 -8 -339 -3 -405 7 -200 28 -406 158 -520 330 -106 157 -132 266
-134 544 l-2 189 28 -24 c15 -14 30 -27 33 -30z m2020 -1180 c33 -107 71 -223
82 -258 l22 -62 -72 -144 c-39 -79 -78 -162 -88 -185 -9 -22 -19 -41 -23 -41
-3 0 -23 38 -45 83 -21 45 -60 122 -87 171 l-49 89 80 246 c44 136 80 250 80
253 0 21 22 60 29 52 5 -5 37 -97 71 -204z"/>
</g>
</svg>
